<svg width="2000" height="600" viewBox="0 0 2000 600" fill="none" xmlns="http://www.w3.org/2000/svg">
<path d="M566.86 251.611C564.028 250.928 561.831 249.805 560.269 248.242C558.804 246.582 557.681 244.678 556.899 242.529C556.216 240.283 555.728 237.842 555.435 235.205C555.239 232.568 554.995 229.834 554.702 227.002C555.093 225.732 555.581 224.658 556.167 223.779C556.851 222.9 557.144 221.68 557.046 220.117C558.12 216.992 559.097 213.965 559.976 211.035C560.854 208.105 561.44 205.078 561.733 201.953C562.319 201.074 562.905 200.488 563.491 200.195C564.272 194.629 564.37 188.916 563.784 183.057C563.198 177.197 562.222 171.777 560.854 166.797C560.952 165.723 561.099 164.941 561.294 164.453C561.489 163.867 561.489 163.379 561.294 162.988C561.099 162.109 561.392 161.67 562.173 161.67C562.954 161.67 563.735 161.67 564.517 161.67C564.517 159.912 564.175 158.203 563.491 156.543C562.905 154.785 562.319 152.783 561.733 150.537C562.515 148.779 563.052 147.07 563.345 145.41C563.638 143.75 564.175 142.236 564.956 140.869C568.081 141.846 571.157 142.969 574.185 144.238C577.212 145.508 580.19 146.777 583.12 148.047C586.05 149.219 588.931 150.391 591.763 151.562C594.595 152.637 597.378 153.516 600.112 154.199C604.312 157.227 608.608 160.254 613.003 163.281C617.495 166.211 621.548 169.482 625.161 173.096C628.872 176.611 631.948 180.664 634.39 185.254C636.831 189.844 638.247 195.264 638.638 201.514C638.442 202.1 638.296 202.588 638.198 202.979C638.101 203.369 638.003 203.76 637.905 204.15C637.808 204.541 637.759 204.98 637.759 205.469C637.759 205.957 637.759 206.641 637.759 207.52C634.243 213.672 629.8 218.848 624.429 223.047C619.058 227.246 613.198 230.957 606.851 234.18C600.503 237.402 593.862 240.381 586.929 243.115C580.093 245.752 573.403 248.584 566.86 251.611ZM581.216 168.555C580.337 168.555 579.702 168.75 579.312 169.141C580.483 173.535 581.362 177.686 581.948 181.592C582.534 185.498 582.827 189.404 582.827 193.311C582.925 197.217 582.729 201.221 582.241 205.322C581.753 209.424 581.069 213.867 580.19 218.652C581.46 218.555 582.583 218.311 583.56 217.92C584.536 217.529 585.513 217.09 586.489 216.602C587.563 216.113 588.638 215.674 589.712 215.283C590.884 214.893 592.202 214.648 593.667 214.551C594.058 213.77 594.546 213.184 595.132 212.793C595.815 212.305 596.401 211.816 596.89 211.328C599.331 210.352 601.772 209.326 604.214 208.252C606.655 207.178 608.901 205.957 610.952 204.59C613.003 203.223 614.858 201.66 616.519 199.902C618.179 198.145 619.546 196.045 620.62 193.604C619.839 192.139 618.862 190.918 617.69 189.941C616.616 188.867 615.444 187.842 614.175 186.865C613.003 185.791 611.831 184.717 610.659 183.643C609.585 182.471 608.706 181.152 608.022 179.688C606.46 179.492 605.093 179.102 603.921 178.516C602.749 177.832 601.626 177.197 600.552 176.611C599.478 175.928 598.306 175.293 597.036 174.707C595.864 174.121 594.448 173.779 592.788 173.682C590.249 172.314 587.954 171.387 585.903 170.898C583.853 170.312 582.29 169.531 581.216 168.555ZM671.919 234.766C670.845 238.672 669.868 241.65 668.989 243.701C668.208 245.654 666.987 247.705 665.327 249.854C664.058 249.658 663.179 249.805 662.69 250.293C662.202 250.781 661.665 251.221 661.079 251.611C660.2 251.807 659.565 251.807 659.175 251.611C658.784 251.416 658.442 251.172 658.149 250.879C657.856 250.684 657.466 250.439 656.978 250.146C656.587 249.951 655.952 249.854 655.073 249.854C654.878 249.072 654.634 248.34 654.341 247.656C654.146 246.973 653.511 246.729 652.437 246.924C652.632 246.143 652.681 245.508 652.583 245.02C652.485 244.434 652.339 243.945 652.144 243.555C652.046 243.066 651.948 242.627 651.851 242.236C651.753 241.748 651.802 241.162 651.997 240.479C651.509 240.479 651.118 240.137 650.825 239.453C650.532 238.77 650.19 238.086 649.8 237.402C650.093 235.645 650.386 233.984 650.679 232.422C650.972 230.859 651.313 229.395 651.704 228.027C652.192 226.66 652.583 225.293 652.876 223.926C653.169 222.559 653.022 221.143 652.437 219.678C652.827 219.971 653.12 219.922 653.315 219.531C653.511 219.043 653.657 218.457 653.755 217.773C653.853 216.992 653.901 216.26 653.901 215.576C653.901 214.795 653.853 214.16 653.755 213.672C654.731 211.133 655.513 208.545 656.099 205.908C656.782 203.174 657.368 200.488 657.856 197.852C658.442 195.215 659.028 192.627 659.614 190.088C660.2 187.549 660.981 185.205 661.958 183.057C663.032 182.861 664.204 183.008 665.474 183.496C666.841 183.887 667.671 184.424 667.964 185.107C670.503 183.154 672.749 180.811 674.702 178.076C676.655 175.244 678.657 172.51 680.708 169.873C682.759 167.236 685.005 164.893 687.446 162.842C689.985 160.791 693.159 159.57 696.968 159.18C698.921 160.645 701.069 162.158 703.413 163.721C705.854 165.186 707.856 167.139 709.419 169.58C710.2 169.971 710.835 170.41 711.323 170.898C711.909 171.289 712.593 171.729 713.374 172.217V173.975C714.546 175.049 715.474 176.318 716.157 177.783C716.938 179.15 717.622 180.664 718.208 182.324C718.794 183.887 719.38 185.498 719.966 187.158C720.552 188.721 721.235 190.234 722.017 191.699C721.821 192.188 721.724 192.627 721.724 193.018C721.724 193.311 721.772 193.652 721.87 194.043C722.065 194.434 722.212 194.824 722.31 195.215C722.407 195.605 722.407 196.143 722.31 196.826C722.017 201.123 720.601 204.59 718.062 207.227C715.62 209.863 712.642 212.061 709.126 213.818C705.61 215.479 701.851 216.895 697.847 218.066C693.843 219.238 690.229 220.508 687.007 221.875C687.007 222.266 687.153 222.461 687.446 222.461C687.837 222.461 687.983 222.705 687.886 223.193C690.229 224.658 692.085 225.83 693.452 226.709C694.819 227.588 696.089 228.32 697.261 228.906C698.53 229.492 699.849 230.029 701.216 230.518C702.681 230.908 704.683 231.396 707.222 231.982C709.761 232.568 711.714 233.057 713.081 233.447C714.546 233.74 715.864 234.033 717.036 234.326C718.208 234.521 719.38 234.717 720.552 234.912C721.821 235.01 723.579 235.156 725.825 235.352C726.704 236.23 727.437 237.305 728.022 238.574C728.706 239.746 729.146 240.967 729.341 242.236C729.536 243.408 729.585 244.58 729.487 245.752C729.39 246.826 729.048 247.705 728.462 248.389C728.56 248.682 728.755 248.828 729.048 248.828C729.438 248.73 729.829 248.73 730.22 248.828C729.634 249.219 729.146 249.707 728.755 250.293C728.364 250.879 727.974 251.465 727.583 252.051C727.192 252.637 726.753 253.125 726.265 253.516C725.776 254.004 725.093 254.297 724.214 254.395C721.187 255.566 717.378 255.615 712.788 254.541C708.198 253.564 702.388 251.709 695.356 248.975C691.841 247.607 688.96 246.436 686.714 245.459C684.565 244.385 682.661 243.359 681.001 242.383C679.438 241.309 677.974 240.186 676.606 239.014C675.337 237.842 673.774 236.426 671.919 234.766ZM692.866 184.521C691.792 186.084 690.571 187.5 689.204 188.77C687.935 190.039 686.665 191.357 685.396 192.725C684.224 193.994 683.149 195.459 682.173 197.119C681.196 198.682 680.513 200.537 680.122 202.686C683.54 202.295 687.104 201.367 690.815 199.902C694.526 198.34 698.042 196.875 701.362 195.508C700.972 192.48 699.897 190.039 698.14 188.184C696.479 186.328 694.722 185.107 692.866 184.521ZM818.726 167.529C818.823 168.213 818.823 168.75 818.726 169.141C818.726 169.434 818.677 169.727 818.579 170.02C818.579 170.312 818.579 170.654 818.579 171.045C818.579 171.338 818.677 171.826 818.872 172.51C816.821 175.83 814.429 178.125 811.694 179.395C809.058 180.566 806.177 181.445 803.052 182.031C799.927 182.52 796.704 183.057 793.384 183.643C790.161 184.229 786.938 185.498 783.716 187.451C782.446 186.963 781.274 186.963 780.2 187.451C779.224 187.939 777.759 188.086 775.806 187.891C775.22 188.477 774.487 188.916 773.608 189.209C772.729 189.404 771.851 189.648 770.972 189.941C771.362 190.82 771.509 191.748 771.411 192.725C771.411 193.604 771.558 194.336 771.851 194.922C775.269 195.215 779.028 195.166 783.13 194.775C787.329 194.385 791.431 194.141 795.435 194.043C795.532 194.531 795.483 194.873 795.288 195.068C795.093 195.166 795.044 195.41 795.142 195.801C795.825 196.289 796.509 196.924 797.192 197.705C797.876 198.389 798.56 199.072 799.243 199.756C799.927 200.439 800.61 201.025 801.294 201.514C802.075 201.904 802.954 202.051 803.931 201.953C804.321 202.734 804.565 203.613 804.663 204.59C804.858 205.469 804.761 206.396 804.37 207.373C802.808 208.447 801.245 209.57 799.683 210.742C798.12 211.816 796.46 212.793 794.702 213.672C793.042 214.551 791.235 215.283 789.282 215.869C787.427 216.357 785.327 216.553 782.983 216.455C782.495 216.455 782.104 216.455 781.812 216.455C781.616 216.455 781.323 216.309 780.933 216.016C780.151 216.504 779.028 216.65 777.563 216.455C776.196 216.26 775.122 216.406 774.341 216.895C773.267 216.406 771.948 216.211 770.386 216.309C768.921 216.309 767.603 216.113 766.431 215.723C764.868 217.773 763.452 219.971 762.183 222.314C760.913 224.658 759.79 227.148 758.813 229.785C762.134 230.273 764.868 230.469 767.017 230.371C769.263 230.273 771.362 230.127 773.315 229.932C775.269 229.639 777.271 229.395 779.321 229.199C781.372 228.906 783.96 228.809 787.085 228.906C789.038 227.832 791.333 227.148 793.97 226.855C796.704 226.465 799.194 225.879 801.44 225.098C802.222 225.391 802.905 225.928 803.491 226.709C804.077 227.393 804.614 228.076 805.103 228.76C805.688 229.346 806.274 229.883 806.86 230.371C807.446 230.859 808.179 231.055 809.058 230.957C809.448 231.348 809.692 231.836 809.79 232.422C809.985 232.91 810.132 233.398 810.229 233.887C810.327 234.375 810.474 234.814 810.669 235.205C810.962 235.498 811.401 235.596 811.987 235.498C810.522 238.721 808.813 241.211 806.86 242.969C805.005 244.629 802.856 245.898 800.415 246.777C797.974 247.656 795.239 248.34 792.212 248.828C789.282 249.316 786.011 249.902 782.397 250.586C781.519 250.781 780.786 250.732 780.2 250.439C779.614 250.244 778.931 250.146 778.149 250.146C775.903 250.635 773.218 251.074 770.093 251.465C766.968 251.855 763.794 252.002 760.571 251.904C757.349 251.807 754.272 251.367 751.343 250.586C748.413 249.902 746.021 248.633 744.165 246.777C743.384 246.094 742.847 245.312 742.554 244.434C742.358 243.457 741.724 242.725 740.649 242.236C740.552 240.967 740.356 239.551 740.063 237.988C739.771 236.426 739.478 234.814 739.185 233.154C738.892 231.396 738.647 229.688 738.452 228.027C738.354 226.367 738.452 224.854 738.745 223.486C739.038 222.021 739.624 220.703 740.503 219.531C741.479 218.359 741.821 217.09 741.528 215.723C742.017 215.625 742.31 215.381 742.407 214.99C742.505 214.502 742.896 214.307 743.579 214.404C744.165 212.646 744.8 210.986 745.483 209.424C746.167 207.861 746.851 206.348 747.534 204.883C748.315 203.418 749.048 201.953 749.731 200.488C750.513 198.926 751.245 197.217 751.929 195.361C750.562 194.092 749.536 192.725 748.853 191.26C748.267 189.697 747.827 188.184 747.534 186.719C747.241 185.156 746.997 183.594 746.802 182.031C746.606 180.371 746.265 178.711 745.776 177.051C746.753 175.586 747.925 174.414 749.292 173.535C750.757 172.559 752.319 171.777 753.979 171.191C755.64 170.605 757.446 170.117 759.399 169.727C761.353 169.336 763.403 168.896 765.552 168.408C769.458 167.139 772.925 166.162 775.952 165.479C779.077 164.795 782.104 164.258 785.034 163.867C788.062 163.379 791.187 162.939 794.409 162.549C797.632 162.158 801.294 161.572 805.396 160.791C806.274 161.67 807.104 162.109 807.886 162.109C808.276 161.23 808.716 160.986 809.204 161.377C809.79 161.67 810.034 161.377 809.937 160.498C810.913 162.158 812.134 163.574 813.599 164.746C815.161 165.82 816.87 166.748 818.726 167.529ZM900.2 237.695C899.614 239.355 898.735 241.064 897.563 242.822C896.489 244.482 895.171 245.996 893.608 247.363C892.144 248.633 890.483 249.707 888.628 250.586C886.772 251.465 884.819 251.953 882.769 252.051C881.499 251.758 880.62 251.416 880.132 251.025C879.741 250.732 879.302 250.439 878.813 250.146C878.521 249.951 878.228 249.805 877.935 249.707C877.739 249.512 877.544 249.365 877.349 249.268L875.591 248.535L876.177 246.631C876.372 245.85 876.323 245.264 876.03 244.873C875.737 244.385 875.151 243.75 874.272 242.969C873.979 242.676 873.687 242.383 873.394 242.09C873.101 241.797 872.856 241.504 872.661 241.211L870.171 238.428L874.126 237.402C876.567 236.719 878.179 235.84 878.96 234.766C879.839 233.691 880.181 231.885 879.985 229.346C878.032 228.955 876.372 228.906 875.005 229.199C873.735 229.492 872.417 229.834 871.05 230.225C869.292 230.713 867.485 231.152 865.63 231.543C863.872 231.836 861.919 231.982 859.771 231.982C858.989 231.982 858.257 231.982 857.573 231.982C856.89 231.885 856.157 231.787 855.376 231.689L853.911 231.396C853.716 230.322 853.521 229.736 853.325 229.639C853.13 229.443 852.935 229.248 852.739 229.053C852.251 228.564 851.714 227.93 851.128 227.148C850.64 226.27 850.542 225.195 850.835 223.926C850.347 223.047 850.054 222.168 849.956 221.289C849.37 222.461 848.931 223.682 848.638 224.951L848.052 226.416L846.587 226.709C846.392 226.807 846.245 227.051 846.147 227.441C846.05 227.734 846.001 227.979 846.001 228.174L845.269 230.664C845.073 230.859 844.878 231.055 844.683 231.25C844.487 231.348 844.292 231.494 844.097 231.689C843.901 232.568 843.657 233.447 843.364 234.326C843.071 235.205 842.778 236.035 842.485 236.816C841.997 238.086 841.558 239.355 841.167 240.625C840.874 241.797 840.776 242.969 840.874 244.141L840.288 245.752C839.8 246.338 839.263 246.826 838.677 247.217C838.091 247.51 837.505 247.803 836.919 248.096C836.724 248.291 836.431 248.486 836.04 248.682C835.747 248.779 835.503 248.877 835.308 248.975L834.868 250.586L833.11 250.879C832.036 251.074 831.255 251.221 830.767 251.318C830.376 251.416 829.888 251.465 829.302 251.465L827.837 251.318C826.763 250.439 825.933 249.756 825.347 249.268C824.761 248.682 824.077 248.145 823.296 247.656C822.417 246.484 821.929 245.605 821.831 245.02C821.733 244.434 821.636 243.896 821.538 243.408C821.343 242.822 821.245 242.334 821.245 241.943C821.147 241.553 821.001 241.26 820.806 241.064L818.901 239.307L820.513 237.988L820.659 235.498C822.612 230.518 824.663 225.732 826.812 221.143C829.058 216.553 831.353 211.865 833.696 207.08C834.478 205.518 835.21 203.955 835.894 202.393C836.675 200.83 837.456 199.268 838.237 197.705C838.14 197.412 838.091 197.07 838.091 196.68C838.091 196.289 838.188 195.85 838.384 195.361C839.458 193.701 840.337 192.236 841.021 190.967C841.704 189.6 842.388 188.232 843.071 186.865C843.853 185.205 844.634 183.594 845.415 182.031C846.294 180.469 847.368 178.857 848.638 177.197L850.981 176.172C851.274 176.074 851.616 175.977 852.007 175.879C852.397 175.684 852.837 175.586 853.325 175.586L855.522 175.879C858.257 174.609 860.649 172.852 862.7 170.605C864.751 168.262 866.851 165.479 868.999 162.256L870.464 160.205L872.368 161.377C872.856 161.67 873.54 161.963 874.419 162.256C875.298 162.451 876.226 162.695 877.202 162.988C878.96 163.379 880.62 163.818 882.183 164.307C883.745 164.795 885.015 165.527 885.991 166.504C886.577 168.066 886.919 169.238 887.017 170.02C887.114 170.801 887.261 171.582 887.456 172.363C887.749 174.023 887.993 175.684 888.188 177.344C888.481 179.004 888.677 180.859 888.774 182.91C889.263 184.57 889.653 186.23 889.946 187.891C890.337 189.453 890.679 191.064 890.972 192.725C891.46 195.068 891.948 197.363 892.437 199.609C892.925 201.758 893.56 203.809 894.341 205.762C895.122 205.762 895.61 205.811 895.806 205.908C896.294 205.713 896.782 205.566 897.271 205.469C897.856 205.371 898.491 205.273 899.175 205.176L900.786 205.029L901.372 206.494C901.47 206.982 901.958 207.471 902.837 207.959C904.106 208.057 905.034 208.35 905.62 208.838C906.206 209.229 906.743 209.668 907.231 210.156C907.622 210.547 908.013 210.84 908.403 211.035L910.601 211.914L909.429 214.111C908.452 215.869 907.036 217.578 905.181 219.238C903.423 220.801 901.421 222.119 899.175 223.193C899.272 223.779 899.321 224.365 899.321 224.951C899.419 225.439 899.565 225.977 899.761 226.562C900.054 228.223 900.298 229.932 900.493 231.689C900.688 233.447 900.688 235.254 900.493 237.109L900.2 237.695ZM857.866 212.354C860.796 212.158 863.433 211.963 865.776 211.768C868.218 211.475 870.903 211.035 873.833 210.449C873.149 207.52 872.417 204.492 871.636 201.367C870.854 198.145 870.024 194.971 869.146 191.846L868.267 193.311C866.313 195.361 864.409 197.656 862.554 200.195C860.796 202.734 859.282 205.127 858.013 207.373C857.427 208.252 856.841 209.131 856.255 210.01C855.669 210.889 855.132 211.768 854.644 212.646C855.229 212.549 855.767 212.5 856.255 212.5C856.841 212.5 857.378 212.451 857.866 212.354ZM1018.74 247.363C1017.76 247.852 1016.83 248.291 1015.95 248.682C1015.17 249.072 1014.24 249.268 1013.17 249.268C1009.36 246.436 1007.36 241.504 1007.16 234.473C1007.07 227.441 1008.58 218.506 1011.7 207.666C1012.19 207.373 1012.44 206.787 1012.44 205.908L1011.12 204.443C1010.73 204.443 1010.34 204.492 1009.95 204.59C1009.65 204.688 1009.41 205.029 1009.21 205.615C1006.67 207.471 1003.89 209.424 1000.86 211.475C997.837 213.428 994.663 215.283 991.343 217.041C988.12 218.701 984.8 220.068 981.382 221.143C978.062 222.217 974.79 222.754 971.567 222.754C963.364 222.754 957.212 218.604 953.11 210.303L951.938 208.105L950.767 210.01C950.474 210.4 950.034 211.23 949.448 212.5C948.862 213.672 948.276 215.039 947.69 216.602C947.104 218.164 946.567 219.775 946.079 221.436C945.688 222.998 945.542 224.365 945.64 225.537C944.761 226.416 943.833 227.441 942.856 228.613C941.88 229.785 941.147 231.104 940.659 232.568C940.464 233.35 940.562 234.082 940.952 234.766C940.757 235.645 940.317 236.328 939.634 236.816C939.243 237.305 938.804 237.793 938.315 238.281C937.925 238.672 937.583 239.111 937.29 239.6C937.095 240.088 936.948 240.576 936.851 241.064C936.851 241.553 936.802 242.041 936.704 242.529C936.704 243.213 936.606 243.848 936.411 244.434C934.751 247.852 933.433 250.049 932.456 251.025C931.479 252.1 930.161 252.637 928.501 252.637C927.72 252.637 926.45 252.49 924.692 252.197C923.423 250.83 922.251 248.975 921.177 246.631C920.2 244.189 919.419 241.602 918.833 238.867C918.345 236.133 918.101 233.398 918.101 230.664C918.198 227.832 918.687 225.391 919.565 223.34C919.565 223.242 919.956 222.266 920.737 220.41C921.519 218.555 922.495 216.162 923.667 213.232C924.937 210.303 926.353 207.08 927.915 203.564C929.478 199.951 931.04 196.484 932.603 193.164C934.165 189.746 935.63 186.621 936.997 183.789C938.462 180.957 939.683 178.809 940.659 177.344C941.44 176.172 942.124 175.098 942.71 174.121C943.394 173.047 944.028 172.021 944.614 171.045C946.372 168.018 948.032 165.527 949.595 163.574C951.255 161.523 953.647 159.912 956.772 158.74C958.921 159.619 960.483 160.645 961.46 161.816L961.753 163.428C962.144 164.404 962.729 164.893 963.511 164.893C964.585 165.186 965.464 165.479 966.147 165.771C966.929 165.967 967.759 166.162 968.638 166.357C969.321 167.139 969.956 168.066 970.542 169.141C971.323 170.312 972.056 171.484 972.739 172.656C973.521 173.73 974.106 174.854 974.497 176.025C974.985 177.1 975.229 178.223 975.229 179.395C975.327 180.566 975.132 181.787 974.644 183.057L974.79 184.521C975.278 185.4 975.376 186.621 975.083 188.184C974.985 188.867 974.937 189.6 974.937 190.381C974.937 191.064 975.034 191.846 975.229 192.725C976.987 194.092 978.55 194.775 979.917 194.775C981.479 194.775 982.896 194.434 984.165 193.75C985.532 192.969 986.802 192.188 987.974 191.406C988.755 190.82 989.536 190.332 990.317 189.941C991.099 189.453 991.88 189.16 992.661 189.062C994.419 187.402 995.981 185.938 997.349 184.668C998.813 183.398 1000.33 182.129 1001.89 180.859C1004.82 178.516 1007.65 175.977 1010.39 173.242C1013.12 170.508 1015.32 167.09 1016.98 162.988C1017.95 162.402 1018.98 162.109 1020.05 162.109C1021.13 162.109 1022.25 162.354 1023.42 162.842C1024.59 163.33 1025.72 163.818 1026.79 164.307C1027.08 164.502 1027.33 164.648 1027.52 164.746C1027.82 164.844 1028.06 164.941 1028.26 165.039C1028.26 166.016 1028.65 166.846 1029.43 167.529C1029.82 167.822 1030.06 168.018 1030.16 168.115C1030.26 168.213 1030.41 168.311 1030.6 168.408C1032.07 169.189 1032.99 169.971 1033.38 170.752C1034.07 172.998 1035.29 174.707 1037.05 175.879C1036.85 176.855 1036.85 177.783 1037.05 178.662C1037.34 179.443 1037.68 180.273 1038.07 181.152C1038.17 181.445 1038.27 181.738 1038.36 182.031C1038.46 182.324 1038.61 182.666 1038.8 183.057L1036.02 182.764L1036.46 185.547C1036.66 186.914 1036.51 188.428 1036.02 190.088C1035.63 191.748 1035.14 193.066 1034.56 194.043C1034.65 196.582 1034.7 198.584 1034.7 200.049C1034.8 201.416 1034.75 202.734 1034.56 204.004C1034.36 205.176 1034.07 206.299 1033.68 207.373C1033.38 208.447 1032.94 209.619 1032.36 210.889C1032.75 217.139 1032.02 222.852 1030.16 228.027C1028.4 233.105 1026.55 237.891 1024.59 242.383C1024.4 242.871 1024.16 243.359 1023.86 243.848C1023.67 244.336 1023.47 244.824 1023.28 245.312C1022.4 245.605 1021.62 245.947 1020.93 246.338C1020.25 246.631 1019.52 246.973 1018.74 247.363ZM1170.99 250.293C1169.43 250.391 1167.48 250.342 1165.13 250.146C1162.89 249.951 1160.79 250.293 1158.83 251.172C1153.66 250.977 1148.38 250.342 1143.01 249.268C1137.64 248.193 1132.71 246.875 1128.22 245.312C1127.24 244.238 1126.26 243.262 1125.29 242.383C1124.31 241.406 1122.99 240.723 1121.33 240.332C1118.99 238.477 1117.08 236.23 1115.62 233.594C1114.16 230.859 1112.98 227.979 1112.1 224.951C1111.23 221.924 1110.64 218.848 1110.35 215.723C1110.05 212.5 1109.96 209.424 1110.05 206.494C1111.52 202.1 1113.57 198.34 1116.21 195.215C1118.94 191.992 1121.72 188.818 1124.56 185.693C1125.83 185.107 1126.75 184.521 1127.34 183.936C1128.02 183.252 1128.71 182.666 1129.39 182.178C1130.17 181.592 1130.9 181.055 1131.59 180.566C1132.37 179.98 1133.05 179.297 1133.64 178.516C1135.69 178.027 1137.45 177.344 1138.91 176.465C1140.47 175.488 1141.99 174.512 1143.45 173.535C1144.92 172.461 1146.43 171.484 1147.99 170.605C1149.56 169.727 1151.36 169.043 1153.41 168.555C1154.19 167.676 1155.12 166.992 1156.2 166.504C1157.27 165.918 1158.34 165.381 1159.42 164.893C1160.59 164.307 1161.67 163.721 1162.64 163.135C1163.72 162.549 1164.55 161.768 1165.13 160.791C1165.62 161.572 1166.3 161.865 1167.18 161.67C1168.06 161.377 1168.89 161.084 1169.67 160.791C1170.16 160.693 1170.55 160.791 1170.84 161.084C1171.24 161.377 1171.58 161.67 1171.87 161.963C1172.16 162.256 1172.41 162.451 1172.6 162.549C1172.9 162.549 1173.14 162.305 1173.33 161.816C1173.82 161.816 1173.97 162.061 1173.77 162.549C1173.58 163.037 1173.43 163.379 1173.33 163.574C1174.12 163.477 1174.75 163.672 1175.24 164.16C1175.83 164.551 1176.7 164.795 1177.88 164.893C1178.27 165.381 1178.36 165.771 1178.17 166.064C1177.97 166.26 1177.88 166.65 1177.88 167.236C1180.81 168.115 1182.66 169.531 1183.44 171.484C1184.22 173.34 1184.27 175.293 1183.59 177.344C1182.91 179.395 1181.68 181.299 1179.93 183.057C1178.17 184.814 1176.26 185.986 1174.21 186.572C1169.53 187.842 1165.08 189.258 1160.88 190.82C1156.78 192.285 1153.41 194.482 1150.78 197.412C1148.43 198.096 1146.33 199.023 1144.48 200.195C1142.72 201.27 1141.01 202.539 1139.35 204.004C1137.79 205.371 1136.27 206.836 1134.81 208.398C1133.44 209.863 1131.98 211.328 1130.42 212.793C1130.51 214.16 1130.27 215.234 1129.68 216.016C1129.19 216.699 1128.71 217.432 1128.22 218.213C1128.41 219.678 1128.75 220.996 1129.24 222.168C1129.73 223.242 1130.27 224.316 1130.85 225.391C1137.3 227.344 1144.14 228.564 1151.36 229.053C1158.69 229.541 1166.01 229.834 1173.33 229.932C1174.02 230.908 1174.8 231.836 1175.68 232.715C1176.66 233.496 1177.53 234.375 1178.32 235.352C1179.1 236.23 1179.73 237.256 1180.22 238.428C1180.71 239.502 1180.81 240.869 1180.51 242.529C1179.15 243.994 1177.63 245.361 1175.97 246.631C1174.31 247.803 1172.65 249.023 1170.99 250.293ZM1272.09 237.695C1271.51 239.355 1270.63 241.064 1269.46 242.822C1268.38 244.482 1267.07 245.996 1265.5 247.363C1264.04 248.633 1262.38 249.707 1260.52 250.586C1258.67 251.465 1256.71 251.953 1254.66 252.051C1253.39 251.758 1252.51 251.416 1252.03 251.025C1251.64 250.732 1251.2 250.439 1250.71 250.146C1250.42 249.951 1250.12 249.805 1249.83 249.707C1249.63 249.512 1249.44 249.365 1249.24 249.268L1247.49 248.535L1248.07 246.631C1248.27 245.85 1248.22 245.264 1247.92 244.873C1247.63 244.385 1247.05 243.75 1246.17 242.969C1245.87 242.676 1245.58 242.383 1245.29 242.09C1245 241.797 1244.75 241.504 1244.56 241.211L1242.07 238.428L1246.02 237.402C1248.46 236.719 1250.07 235.84 1250.85 234.766C1251.73 233.691 1252.08 231.885 1251.88 229.346C1249.93 228.955 1248.27 228.906 1246.9 229.199C1245.63 229.492 1244.31 229.834 1242.94 230.225C1241.19 230.713 1239.38 231.152 1237.52 231.543C1235.77 231.836 1233.81 231.982 1231.67 231.982C1230.88 231.982 1230.15 231.982 1229.47 231.982C1228.78 231.885 1228.05 231.787 1227.27 231.689L1225.81 231.396C1225.61 230.322 1225.42 229.736 1225.22 229.639C1225.02 229.443 1224.83 229.248 1224.63 229.053C1224.15 228.564 1223.61 227.93 1223.02 227.148C1222.53 226.27 1222.44 225.195 1222.73 223.926C1222.24 223.047 1221.95 222.168 1221.85 221.289C1221.26 222.461 1220.83 223.682 1220.53 224.951L1219.95 226.416L1218.48 226.709C1218.29 226.807 1218.14 227.051 1218.04 227.441C1217.94 227.734 1217.9 227.979 1217.9 228.174L1217.16 230.664C1216.97 230.859 1216.77 231.055 1216.58 231.25C1216.38 231.348 1216.19 231.494 1215.99 231.689C1215.8 232.568 1215.55 233.447 1215.26 234.326C1214.97 235.205 1214.67 236.035 1214.38 236.816C1213.89 238.086 1213.45 239.355 1213.06 240.625C1212.77 241.797 1212.67 242.969 1212.77 244.141L1212.18 245.752C1211.69 246.338 1211.16 246.826 1210.57 247.217C1209.99 247.51 1209.4 247.803 1208.81 248.096C1208.62 248.291 1208.33 248.486 1207.93 248.682C1207.64 248.779 1207.4 248.877 1207.2 248.975L1206.76 250.586L1205 250.879C1203.93 251.074 1203.15 251.221 1202.66 251.318C1202.27 251.416 1201.78 251.465 1201.2 251.465L1199.73 251.318C1198.66 250.439 1197.83 249.756 1197.24 249.268C1196.66 248.682 1195.97 248.145 1195.19 247.656C1194.31 246.484 1193.82 245.605 1193.73 245.02C1193.63 244.434 1193.53 243.896 1193.43 243.408C1193.24 242.822 1193.14 242.334 1193.14 241.943C1193.04 241.553 1192.9 241.26 1192.7 241.064L1190.8 239.307L1192.41 237.988L1192.55 235.498C1194.51 230.518 1196.56 225.732 1198.71 221.143C1200.95 216.553 1203.25 211.865 1205.59 207.08C1206.37 205.518 1207.1 203.955 1207.79 202.393C1208.57 200.83 1209.35 199.268 1210.13 197.705C1210.03 197.412 1209.99 197.07 1209.99 196.68C1209.99 196.289 1210.08 195.85 1210.28 195.361C1211.35 193.701 1212.23 192.236 1212.92 190.967C1213.6 189.6 1214.28 188.232 1214.97 186.865C1215.75 185.205 1216.53 183.594 1217.31 182.031C1218.19 180.469 1219.26 178.857 1220.53 177.197L1222.88 176.172C1223.17 176.074 1223.51 175.977 1223.9 175.879C1224.29 175.684 1224.73 175.586 1225.22 175.586L1227.42 175.879C1230.15 174.609 1232.54 172.852 1234.59 170.605C1236.65 168.262 1238.75 165.479 1240.89 162.256L1242.36 160.205L1244.26 161.377C1244.75 161.67 1245.43 161.963 1246.31 162.256C1247.19 162.451 1248.12 162.695 1249.1 162.988C1250.85 163.379 1252.51 163.818 1254.08 164.307C1255.64 164.795 1256.91 165.527 1257.89 166.504C1258.47 168.066 1258.81 169.238 1258.91 170.02C1259.01 170.801 1259.16 171.582 1259.35 172.363C1259.64 174.023 1259.89 175.684 1260.08 177.344C1260.38 179.004 1260.57 180.859 1260.67 182.91C1261.16 184.57 1261.55 186.23 1261.84 187.891C1262.23 189.453 1262.57 191.064 1262.87 192.725C1263.35 195.068 1263.84 197.363 1264.33 199.609C1264.82 201.758 1265.45 203.809 1266.24 205.762C1267.02 205.762 1267.5 205.811 1267.7 205.908C1268.19 205.713 1268.68 205.566 1269.17 205.469C1269.75 205.371 1270.39 205.273 1271.07 205.176L1272.68 205.029L1273.27 206.494C1273.36 206.982 1273.85 207.471 1274.73 207.959C1276 208.057 1276.93 208.35 1277.51 208.838C1278.1 209.229 1278.64 209.668 1279.13 210.156C1279.52 210.547 1279.91 210.84 1280.3 211.035L1282.5 211.914L1281.32 214.111C1280.35 215.869 1278.93 217.578 1277.08 219.238C1275.32 220.801 1273.32 222.119 1271.07 223.193C1271.17 223.779 1271.22 224.365 1271.22 224.951C1271.31 225.439 1271.46 225.977 1271.66 226.562C1271.95 228.223 1272.19 229.932 1272.39 231.689C1272.58 233.447 1272.58 235.254 1272.39 237.109L1272.09 237.695ZM1229.76 212.354C1232.69 212.158 1235.33 211.963 1237.67 211.768C1240.11 211.475 1242.8 211.035 1245.73 210.449C1245.04 207.52 1244.31 204.492 1243.53 201.367C1242.75 198.145 1241.92 194.971 1241.04 191.846L1240.16 193.311C1238.21 195.361 1236.3 197.656 1234.45 200.195C1232.69 202.734 1231.18 205.127 1229.91 207.373C1229.32 208.252 1228.74 209.131 1228.15 210.01C1227.56 210.889 1227.03 211.768 1226.54 212.646C1227.12 212.549 1227.66 212.5 1228.15 212.5C1228.74 212.5 1229.27 212.451 1229.76 212.354ZM1312.85 234.766C1311.77 238.672 1310.8 241.65 1309.92 243.701C1309.14 245.654 1307.92 247.705 1306.25 249.854C1304.99 249.658 1304.11 249.805 1303.62 250.293C1303.13 250.781 1302.59 251.221 1302.01 251.611C1301.13 251.807 1300.49 251.807 1300.1 251.611C1299.71 251.416 1299.37 251.172 1299.08 250.879C1298.78 250.684 1298.39 250.439 1297.91 250.146C1297.51 249.951 1296.88 249.854 1296 249.854C1295.81 249.072 1295.56 248.34 1295.27 247.656C1295.07 246.973 1294.44 246.729 1293.36 246.924C1293.56 246.143 1293.61 245.508 1293.51 245.02C1293.41 244.434 1293.27 243.945 1293.07 243.555C1292.97 243.066 1292.88 242.627 1292.78 242.236C1292.68 241.748 1292.73 241.162 1292.92 240.479C1292.44 240.479 1292.05 240.137 1291.75 239.453C1291.46 238.77 1291.12 238.086 1290.73 237.402C1291.02 235.645 1291.31 233.984 1291.61 232.422C1291.9 230.859 1292.24 229.395 1292.63 228.027C1293.12 226.66 1293.51 225.293 1293.8 223.926C1294.1 222.559 1293.95 221.143 1293.36 219.678C1293.75 219.971 1294.05 219.922 1294.24 219.531C1294.44 219.043 1294.58 218.457 1294.68 217.773C1294.78 216.992 1294.83 216.26 1294.83 215.576C1294.83 214.795 1294.78 214.16 1294.68 213.672C1295.66 211.133 1296.44 208.545 1297.03 205.908C1297.71 203.174 1298.3 200.488 1298.78 197.852C1299.37 195.215 1299.96 192.627 1300.54 190.088C1301.13 187.549 1301.91 185.205 1302.89 183.057C1303.96 182.861 1305.13 183.008 1306.4 183.496C1307.77 183.887 1308.6 184.424 1308.89 185.107C1311.43 183.154 1313.68 180.811 1315.63 178.076C1317.58 175.244 1319.58 172.51 1321.64 169.873C1323.69 167.236 1325.93 164.893 1328.37 162.842C1330.91 160.791 1334.09 159.57 1337.9 159.18C1339.85 160.645 1342 162.158 1344.34 163.721C1346.78 165.186 1348.78 167.139 1350.35 169.58C1351.13 169.971 1351.76 170.41 1352.25 170.898C1352.84 171.289 1353.52 171.729 1354.3 172.217V173.975C1355.47 175.049 1356.4 176.318 1357.08 177.783C1357.87 179.15 1358.55 180.664 1359.14 182.324C1359.72 183.887 1360.31 185.498 1360.89 187.158C1361.48 188.721 1362.16 190.234 1362.94 191.699C1362.75 192.188 1362.65 192.627 1362.65 193.018C1362.65 193.311 1362.7 193.652 1362.8 194.043C1362.99 194.434 1363.14 194.824 1363.24 195.215C1363.33 195.605 1363.33 196.143 1363.24 196.826C1362.94 201.123 1361.53 204.59 1358.99 207.227C1356.55 209.863 1353.57 212.061 1350.05 213.818C1346.54 215.479 1342.78 216.895 1338.77 218.066C1334.77 219.238 1331.16 220.508 1327.93 221.875C1327.93 222.266 1328.08 222.461 1328.37 222.461C1328.76 222.461 1328.91 222.705 1328.81 223.193C1331.16 224.658 1333.01 225.83 1334.38 226.709C1335.75 227.588 1337.02 228.32 1338.19 228.906C1339.46 229.492 1340.78 230.029 1342.14 230.518C1343.61 230.908 1345.61 231.396 1348.15 231.982C1350.69 232.568 1352.64 233.057 1354.01 233.447C1355.47 233.74 1356.79 234.033 1357.96 234.326C1359.14 234.521 1360.31 234.717 1361.48 234.912C1362.75 235.01 1364.51 235.156 1366.75 235.352C1367.63 236.23 1368.36 237.305 1368.95 238.574C1369.63 239.746 1370.07 240.967 1370.27 242.236C1370.46 243.408 1370.51 244.58 1370.42 245.752C1370.32 246.826 1369.98 247.705 1369.39 248.389C1369.49 248.682 1369.68 248.828 1369.98 248.828C1370.37 248.73 1370.76 248.73 1371.15 248.828C1370.56 249.219 1370.07 249.707 1369.68 250.293C1369.29 250.879 1368.9 251.465 1368.51 252.051C1368.12 252.637 1367.68 253.125 1367.19 253.516C1366.7 254.004 1366.02 254.297 1365.14 254.395C1362.11 255.566 1358.31 255.615 1353.72 254.541C1349.13 253.564 1343.32 251.709 1336.28 248.975C1332.77 247.607 1329.89 246.436 1327.64 245.459C1325.49 244.385 1323.59 243.359 1321.93 242.383C1320.37 241.309 1318.9 240.186 1317.53 239.014C1316.26 237.842 1314.7 236.426 1312.85 234.766ZM1333.79 184.521C1332.72 186.084 1331.5 187.5 1330.13 188.77C1328.86 190.039 1327.59 191.357 1326.32 192.725C1325.15 193.994 1324.08 195.459 1323.1 197.119C1322.12 198.682 1321.44 200.537 1321.05 202.686C1324.47 202.295 1328.03 201.367 1331.74 199.902C1335.45 198.34 1338.97 196.875 1342.29 195.508C1341.9 192.48 1340.83 190.039 1339.07 188.184C1337.41 186.328 1335.65 185.107 1333.79 184.521ZM1380.26 184.082C1380.94 182.031 1382.02 180.273 1383.48 178.809C1385.04 177.344 1386.7 176.123 1388.46 175.146C1390.32 174.072 1392.22 173.193 1394.17 172.51C1396.13 171.826 1397.98 171.24 1399.74 170.752C1403.65 169.092 1407.8 167.529 1412.19 166.064C1416.68 164.502 1421.23 163.135 1425.82 161.963C1430.5 160.791 1435.29 160.059 1440.17 159.766C1445.05 159.375 1450.18 159.961 1455.55 161.523C1455.84 162.5 1456.28 163.428 1456.87 164.307C1457.46 165.186 1458.04 166.064 1458.63 166.943C1459.31 167.822 1459.9 168.701 1460.39 169.58C1460.87 170.361 1461.17 171.191 1461.26 172.07C1462.24 172.949 1463.02 173.926 1463.61 175C1464.19 175.977 1464.29 177.295 1463.9 178.955C1462.92 179.736 1461.95 180.469 1460.97 181.152C1460.09 181.738 1459.12 182.275 1458.04 182.764C1454.43 181.885 1450.77 181.592 1447.06 181.885C1443.34 182.178 1440.02 182.422 1437.09 182.617C1436.22 181.738 1435.14 181.299 1433.87 181.299C1432.7 181.299 1431.43 181.494 1430.06 181.885C1428.79 182.275 1427.48 182.666 1426.11 183.057C1424.84 183.447 1423.62 183.545 1422.45 183.35C1421.47 184.131 1420.25 184.668 1418.78 184.961C1417.42 185.156 1415.9 185.352 1414.24 185.547C1414.15 186.035 1414.24 186.377 1414.54 186.572C1414.83 186.67 1414.88 186.963 1414.68 187.451C1415.27 188.135 1416 188.623 1416.88 188.916C1417.86 189.209 1418.83 189.502 1419.81 189.795C1420.88 190.088 1421.81 190.479 1422.59 190.967C1423.37 191.357 1423.91 192.041 1424.2 193.018C1425.67 193.018 1426.94 193.359 1428.01 194.043C1429.09 194.727 1429.97 195.557 1430.65 196.533C1431.33 197.51 1431.82 198.584 1432.11 199.756C1432.5 200.83 1432.7 201.807 1432.7 202.686C1432.99 203.467 1433.33 203.809 1433.73 203.711C1434.12 203.613 1434.56 203.809 1435.04 204.297C1435.34 205.566 1436.07 206.885 1437.24 208.252C1438.41 209.521 1439.34 210.938 1440.02 212.5C1440.22 214.941 1440.37 217.139 1440.46 219.092C1440.56 220.947 1440.22 222.852 1439.44 224.805C1437.97 228.418 1435.92 231.641 1433.29 234.473C1430.75 237.305 1427.82 239.844 1424.5 242.09C1421.27 244.238 1417.81 246.094 1414.1 247.656C1410.39 249.219 1406.77 250.537 1403.26 251.611C1402.87 251.514 1402.48 251.514 1402.08 251.611C1401.69 251.709 1401.6 251.465 1401.79 250.879C1401.01 251.562 1400.13 252.002 1399.16 252.197C1398.28 252.393 1397.3 252.441 1396.23 252.344C1395.15 252.344 1394.03 252.295 1392.86 252.197C1391.78 252.1 1390.76 252.148 1389.78 252.344C1389.1 251.66 1388.46 250.977 1387.88 250.293C1387.39 249.707 1387 248.926 1386.7 247.949C1386.22 247.949 1385.97 247.705 1385.97 247.217C1386.07 246.729 1385.92 246.484 1385.53 246.484C1386.12 245.508 1386.36 244.971 1386.26 244.873C1386.26 244.678 1386.12 244.531 1385.83 244.434C1385.63 244.336 1385.43 244.238 1385.24 244.141C1385.04 243.945 1385 243.701 1385.09 243.408C1385.48 242.627 1385.63 241.748 1385.53 240.771C1385.43 239.697 1385.34 238.623 1385.24 237.549C1385.14 236.475 1385.19 235.449 1385.39 234.473C1385.68 233.496 1386.41 232.715 1387.58 232.129C1390.9 232.52 1394.03 232.422 1396.96 231.836C1399.99 231.152 1402.82 230.225 1405.45 229.053C1408.09 227.881 1410.58 226.611 1412.92 225.244C1415.37 223.877 1417.76 222.656 1420.1 221.582C1420.4 220.703 1420.79 219.971 1421.27 219.385C1421.86 218.799 1422.45 218.262 1423.03 217.773C1423.62 217.285 1424.16 216.748 1424.64 216.162C1425.13 215.576 1425.47 214.844 1425.67 213.965C1425.77 213.281 1425.57 212.891 1425.08 212.793C1424.69 212.598 1424.5 212.207 1424.5 211.621L1422.89 211.182C1421.03 210.107 1418.93 209.229 1416.59 208.545C1414.24 207.764 1412.24 206.934 1410.58 206.055C1409.51 206.641 1408.48 206.787 1407.5 206.494C1406.63 206.201 1405.45 205.908 1403.99 205.615C1400.67 205.42 1397.45 205.078 1394.32 204.59C1391.29 204.102 1388.36 203.223 1385.53 201.953C1385.34 201.465 1385.09 201.025 1384.8 200.635C1384.51 200.244 1383.97 200.146 1383.19 200.342C1382.6 199.561 1382.02 198.828 1381.43 198.145C1380.84 197.363 1380.31 196.533 1379.82 195.654C1380.01 194.482 1380.16 193.506 1380.26 192.725C1380.36 191.846 1380.06 191.016 1379.38 190.234C1379.77 188.965 1380.06 187.939 1380.26 187.158C1380.45 186.377 1380.45 185.352 1380.26 184.082ZM446.45 425.055C446.353 426.227 446.45 427.35 446.743 428.424C447.036 429.498 447.378 430.572 447.769 431.646C448.257 432.623 448.696 433.648 449.087 434.723C449.478 435.797 449.771 436.871 449.966 437.945C450.161 439.312 450.161 440.826 449.966 442.486C449.771 444.049 449.429 445.611 448.94 447.174C448.452 448.639 447.817 450.006 447.036 451.275C446.255 452.447 445.327 453.326 444.253 453.912C442.886 455.67 441.226 457.037 439.272 458.014C437.319 458.99 435.513 460.162 433.853 461.529C432.778 462.213 431.558 462.701 430.19 462.994C428.921 463.287 427.603 463.58 426.235 463.873C425.161 464.459 423.892 465.094 422.427 465.777C420.962 466.363 419.448 466.949 417.886 467.535C416.323 468.023 414.761 468.414 413.198 468.707C411.636 468.902 410.269 468.951 409.097 468.854C406.167 469.928 403.286 470.611 400.454 470.904C397.72 471.295 394.497 471.1 390.786 470.318C387.271 470.807 383.999 470.66 380.972 469.879C378.042 469.098 375.405 467.877 373.062 466.217C370.815 464.459 368.813 462.408 367.056 460.064C365.396 457.623 364.028 455.084 362.954 452.447C362.173 446.881 362.368 441.852 363.54 437.359C364.712 432.77 366.372 428.57 368.521 424.762C370.767 420.855 373.306 417.291 376.138 414.068C378.97 410.748 381.704 407.525 384.341 404.4C384.927 404.596 385.366 404.596 385.659 404.4C386.05 404.107 386.392 403.766 386.685 403.375C386.978 402.887 387.271 402.447 387.563 402.057C387.954 401.666 388.394 401.422 388.882 401.324C389.565 399.859 390.542 398.785 391.812 398.102C393.179 397.32 394.253 396.246 395.034 394.879C395.913 394.684 396.646 394.391 397.231 394C397.817 393.609 398.354 393.17 398.843 392.682C399.429 392.193 400.015 391.754 400.601 391.363C401.187 390.875 401.87 390.533 402.651 390.338V388.727C404.409 387.945 405.679 387.066 406.46 386.09C407.339 385.016 408.364 383.746 409.536 382.281C410.415 382.184 411.099 382.135 411.587 382.135C412.173 382.135 413.003 382.037 414.077 381.842C414.858 380.475 415.542 379.449 416.128 378.766C416.812 378.082 417.788 377.35 419.058 376.568C420.229 377.154 421.499 377.545 422.866 377.74C424.331 377.936 425.601 378.57 426.675 379.645C426.772 380.621 427.065 381.402 427.554 381.988C428.042 382.477 428.579 382.965 429.165 383.453C429.751 383.844 430.288 384.283 430.776 384.771C431.362 385.26 431.753 385.943 431.948 386.822C432.339 386.92 432.583 386.871 432.681 386.676C432.876 386.48 433.169 386.432 433.56 386.529C433.853 387.896 434.194 388.824 434.585 389.312C434.976 389.703 435.366 390.533 435.757 391.803C435.269 392.779 434.878 393.805 434.585 394.879C434.39 395.855 433.804 396.588 432.827 397.076C432.729 397.76 432.925 398.15 433.413 398.248C433.901 398.248 434.194 398.492 434.292 398.98C434.39 399.859 434.243 400.494 433.853 400.885C436.196 404.693 438.296 408.746 440.151 413.043C442.007 417.242 444.106 421.246 446.45 425.055ZM428.14 438.971C428.53 437.896 429.019 437.018 429.604 436.334C430.288 435.65 430.679 434.625 430.776 433.258C430.288 432.477 429.995 431.891 429.897 431.5C429.8 431.012 429.751 430.279 429.751 429.303C427.603 426.275 425.747 423.053 424.185 419.635C422.622 416.119 420.864 412.848 418.911 409.82C418.716 410.211 418.374 410.602 417.886 410.992C417.397 411.383 416.86 411.285 416.274 410.699C416.079 411.48 415.737 412.066 415.249 412.457C414.761 412.75 414.224 412.896 413.638 412.896C413.052 412.799 412.417 412.652 411.733 412.457C411.147 412.164 410.61 411.822 410.122 411.432C407.29 413.678 404.458 415.875 401.626 418.023C398.794 420.172 396.255 422.662 394.009 425.494C393.618 425.689 393.374 425.787 393.276 425.787C393.179 425.689 392.886 425.738 392.397 425.934C391.616 427.789 390.64 429.498 389.468 431.061C388.394 432.525 387.319 434.039 386.245 435.602C385.171 437.164 384.243 438.824 383.462 440.582C382.681 442.34 382.241 444.391 382.144 446.734C383.804 448.102 385.757 448.932 388.003 449.225C390.249 449.518 392.544 449.566 394.888 449.371C397.329 449.176 399.673 448.883 401.919 448.492C404.263 448.004 406.411 447.76 408.364 447.76C412.466 446.783 415.981 445.514 418.911 443.951C421.841 442.291 424.917 440.631 428.14 438.971ZM492.915 442.34C492.036 442.535 491.401 443.072 491.011 443.951C490.62 444.732 490.229 445.562 489.839 446.441C489.546 447.32 489.204 448.15 488.813 448.932C488.521 449.615 488.032 449.957 487.349 449.957C487.251 450.738 486.958 451.422 486.47 452.008C486.079 452.594 485.688 453.229 485.298 453.912C484.907 454.498 484.614 455.182 484.419 455.963C484.224 456.646 484.321 457.477 484.712 458.453C483.931 459.039 483.442 459.869 483.247 460.943C483.052 462.018 482.808 463.043 482.515 464.02C482.319 464.996 481.929 465.826 481.343 466.51C480.757 467.193 479.683 467.486 478.12 467.389C477.827 467.779 477.778 468.023 477.974 468.121C478.169 468.219 478.315 468.561 478.413 469.146C477.339 468.951 476.509 469 475.923 469.293C475.435 469.684 474.8 469.928 474.019 470.025C472.163 469.439 470.601 468.414 469.331 466.949C468.159 465.484 467.085 463.873 466.108 462.115C465.229 460.26 464.399 458.404 463.618 456.549C462.935 454.693 462.251 453.082 461.567 451.715C461.86 450.641 461.909 449.615 461.714 448.639C461.519 447.564 461.177 446.686 460.688 446.002C465.474 435.846 470.698 425.006 476.362 413.482C482.026 401.959 487.397 390.582 492.476 379.352C494.722 380.23 496.919 381.256 499.067 382.428C501.313 383.502 503.315 384.771 505.073 386.236C506.929 387.701 508.491 389.41 509.761 391.363C511.03 393.219 511.86 395.318 512.251 397.662C512.056 398.248 511.812 398.492 511.519 398.395C511.323 398.199 511.128 398.248 510.933 398.541C511.323 399.029 511.519 399.371 511.519 399.566C511.616 399.762 511.616 399.957 511.519 400.152C511.519 400.348 511.519 400.641 511.519 401.031C511.519 401.324 511.665 401.764 511.958 402.35C511.567 402.252 511.274 402.301 511.079 402.496C510.981 402.691 510.688 402.691 510.2 402.496C510.591 403.57 510.688 404.449 510.493 405.133C510.396 405.816 510.2 406.451 509.907 407.037C509.614 407.525 509.37 408.111 509.175 408.795C508.979 409.381 509.028 410.162 509.321 411.139C509.028 411.139 508.784 411.236 508.589 411.432C508.491 411.529 508.394 411.676 508.296 411.871C508.198 411.969 508.052 412.115 507.856 412.311C507.759 412.408 507.563 412.408 507.271 412.311C507.563 414.459 507.661 416.607 507.563 418.756C507.466 420.904 507.368 423.102 507.271 425.348C507.271 427.496 507.319 429.791 507.417 432.232C507.515 434.576 507.856 437.018 508.442 439.557C511.958 437.506 514.741 434.869 516.792 431.646C518.94 428.424 520.649 424.811 521.919 420.807C523.286 416.803 524.312 412.506 524.995 407.916C525.679 403.326 526.411 398.639 527.192 393.854C528.071 392.975 528.755 391.9 529.243 390.631C529.731 389.361 530.171 388.043 530.562 386.676C530.952 385.211 531.343 383.795 531.733 382.428C532.124 380.963 532.612 379.645 533.198 378.473C534.663 378.668 535.884 379.156 536.86 379.938C537.935 380.621 538.911 381.402 539.79 382.281C540.669 383.062 541.597 383.844 542.573 384.625C543.55 385.309 544.771 385.748 546.235 385.943C547.407 387.604 548.481 389.215 549.458 390.777C550.435 392.34 551.069 394 551.362 395.758C550.874 396.539 550.483 397.418 550.19 398.395C549.995 399.371 549.751 400.348 549.458 401.324C549.165 402.301 548.774 403.229 548.286 404.107C547.798 404.889 547.114 405.572 546.235 406.158C545.942 408.697 545.552 411.041 545.063 413.189C544.673 415.24 544.233 417.291 543.745 419.342C543.354 421.393 543.013 423.541 542.72 425.787C542.427 427.936 542.329 430.328 542.427 432.965C541.646 435.211 540.815 437.604 539.937 440.143C539.058 442.682 538.374 444.977 537.886 447.027C536.323 448.297 535.103 449.811 534.224 451.568C533.345 453.326 532.417 455.084 531.44 456.842C531.05 457.232 530.806 457.33 530.708 457.135C530.61 456.939 530.269 456.793 529.683 456.695C529.78 457.086 529.78 457.379 529.683 457.574C529.585 457.77 529.438 457.965 529.243 458.16C529.146 458.258 529.048 458.453 528.95 458.746C528.95 459.039 529.048 459.43 529.243 459.918C527.876 460.504 526.655 461.334 525.581 462.408C524.507 463.482 523.335 464.459 522.065 465.338C520.894 466.217 519.429 466.803 517.671 467.096C516.011 467.389 513.813 467.047 511.079 466.07C507.075 463.141 503.511 459.771 500.386 455.963C497.358 452.154 494.868 447.613 492.915 442.34ZM690.288 429.449C690.19 429.938 690.093 430.377 689.995 430.768C689.897 431.061 689.8 431.354 689.702 431.646C689.604 431.939 689.556 432.33 689.556 432.818C689.556 433.209 689.556 433.746 689.556 434.43C686.626 439.605 682.915 443.951 678.423 447.467C674.028 450.982 669.146 454.107 663.774 456.842C658.501 459.479 652.983 461.92 647.222 464.166C641.46 466.314 635.845 468.658 630.376 471.197C628.032 470.611 626.226 469.635 624.956 468.268C623.784 466.9 622.856 465.338 622.173 463.58C621.587 461.725 621.147 459.723 620.854 457.574C620.659 455.328 620.464 453.033 620.269 450.689C620.562 449.615 620.952 448.736 621.44 448.053C622.026 447.271 622.319 446.197 622.319 444.83C623.101 442.291 623.882 439.801 624.663 437.359C625.444 434.918 625.933 432.428 626.128 429.889C626.421 429.107 626.958 428.57 627.739 428.277C628.228 423.59 628.228 418.854 627.739 414.068C627.349 409.186 626.567 404.645 625.396 400.445C625.493 399.469 625.591 398.785 625.688 398.395C625.884 397.906 625.884 397.564 625.688 397.369C625.591 396.588 625.835 396.197 626.421 396.197C627.104 396.197 627.788 396.197 628.472 396.197C628.472 394.732 628.179 393.268 627.593 391.803C627.104 390.338 626.616 388.678 626.128 386.822C626.812 385.357 627.251 383.941 627.446 382.574C627.642 381.109 628.081 379.84 628.765 378.766C634.038 380.426 639.067 382.428 643.853 384.771C648.735 387.115 653.521 388.824 658.208 389.898C661.724 392.438 665.337 394.977 669.048 397.516C672.759 399.957 676.128 402.691 679.155 405.719C682.183 408.648 684.722 412.018 686.772 415.826C688.823 419.635 689.995 424.176 690.288 429.449ZM655.571 437.506C657.622 436.725 659.624 435.895 661.577 435.016C663.628 434.137 665.483 433.16 667.144 432.086C668.901 430.914 670.464 429.596 671.831 428.131C673.198 426.666 674.321 424.908 675.2 422.857C674.614 421.686 673.833 420.66 672.856 419.781C671.88 418.805 670.903 417.926 669.927 417.145C668.95 416.266 667.974 415.387 666.997 414.508C666.118 413.629 665.386 412.555 664.8 411.285C663.53 411.09 662.407 410.748 661.431 410.26C660.454 409.674 659.478 409.137 658.501 408.648C657.622 408.062 656.646 407.525 655.571 407.037C654.595 406.549 653.423 406.256 652.056 406.158C649.907 405.084 647.954 404.303 646.196 403.814C644.536 403.326 643.267 402.691 642.388 401.91C641.704 401.91 641.167 402.057 640.776 402.35C641.753 406.061 642.485 409.576 642.974 412.896C643.462 416.119 643.706 419.391 643.706 422.711C643.804 425.934 643.657 429.254 643.267 432.672C642.876 436.09 642.339 439.801 641.655 443.805C642.632 443.707 643.511 443.512 644.292 443.219C645.171 442.828 646.001 442.438 646.782 442.047C647.661 441.656 648.54 441.314 649.419 441.021C650.396 440.631 651.519 440.387 652.788 440.289C653.081 439.703 653.472 439.215 653.96 438.824C654.546 438.434 655.083 437.994 655.571 437.506ZM723.716 453.766C722.642 457.672 721.665 460.65 720.786 462.701C720.005 464.654 718.784 466.705 717.124 468.854C715.854 468.658 714.976 468.805 714.487 469.293C713.999 469.781 713.462 470.221 712.876 470.611C711.997 470.807 711.362 470.807 710.972 470.611C710.581 470.416 710.239 470.172 709.946 469.879C709.653 469.684 709.263 469.439 708.774 469.146C708.384 468.951 707.749 468.854 706.87 468.854C706.675 468.072 706.431 467.34 706.138 466.656C705.942 465.973 705.308 465.729 704.233 465.924C704.429 465.143 704.478 464.508 704.38 464.02C704.282 463.434 704.136 462.945 703.94 462.555C703.843 462.066 703.745 461.627 703.647 461.236C703.55 460.748 703.599 460.162 703.794 459.479C703.306 459.479 702.915 459.137 702.622 458.453C702.329 457.77 701.987 457.086 701.597 456.402C701.89 454.645 702.183 452.984 702.476 451.422C702.769 449.859 703.11 448.395 703.501 447.027C703.989 445.66 704.38 444.293 704.673 442.926C704.966 441.559 704.819 440.143 704.233 438.678C704.624 438.971 704.917 438.922 705.112 438.531C705.308 438.043 705.454 437.457 705.552 436.773C705.649 435.992 705.698 435.26 705.698 434.576C705.698 433.795 705.649 433.16 705.552 432.672C706.528 430.133 707.31 427.545 707.896 424.908C708.579 422.174 709.165 419.488 709.653 416.852C710.239 414.215 710.825 411.627 711.411 409.088C711.997 406.549 712.778 404.205 713.755 402.057C714.829 401.861 716.001 402.008 717.271 402.496C718.638 402.887 719.468 403.424 719.761 404.107C722.3 402.154 724.546 399.811 726.499 397.076C728.452 394.244 730.454 391.51 732.505 388.873C734.556 386.236 736.802 383.893 739.243 381.842C741.782 379.791 744.956 378.57 748.765 378.18C750.718 379.645 752.866 381.158 755.21 382.721C757.651 384.186 759.653 386.139 761.216 388.58C761.997 388.971 762.632 389.41 763.12 389.898C763.706 390.289 764.39 390.729 765.171 391.217V392.975C766.343 394.049 767.271 395.318 767.954 396.783C768.735 398.15 769.419 399.664 770.005 401.324C770.591 402.887 771.177 404.498 771.763 406.158C772.349 407.721 773.032 409.234 773.813 410.699C773.618 411.188 773.521 411.627 773.521 412.018C773.521 412.311 773.569 412.652 773.667 413.043C773.862 413.434 774.009 413.824 774.106 414.215C774.204 414.605 774.204 415.143 774.106 415.826C773.813 420.123 772.397 423.59 769.858 426.227C767.417 428.863 764.438 431.061 760.923 432.818C757.407 434.479 753.647 435.895 749.644 437.066C745.64 438.238 742.026 439.508 738.804 440.875C738.804 441.266 738.95 441.461 739.243 441.461C739.634 441.461 739.78 441.705 739.683 442.193C742.026 443.658 743.882 444.83 745.249 445.709C746.616 446.588 747.886 447.32 749.058 447.906C750.327 448.492 751.646 449.029 753.013 449.518C754.478 449.908 756.479 450.396 759.019 450.982C761.558 451.568 763.511 452.057 764.878 452.447C766.343 452.74 767.661 453.033 768.833 453.326C770.005 453.521 771.177 453.717 772.349 453.912C773.618 454.01 775.376 454.156 777.622 454.352C778.501 455.23 779.233 456.305 779.819 457.574C780.503 458.746 780.942 459.967 781.138 461.236C781.333 462.408 781.382 463.58 781.284 464.752C781.187 465.826 780.845 466.705 780.259 467.389C780.356 467.682 780.552 467.828 780.845 467.828C781.235 467.73 781.626 467.73 782.017 467.828C781.431 468.219 780.942 468.707 780.552 469.293C780.161 469.879 779.771 470.465 779.38 471.051C778.989 471.637 778.55 472.125 778.062 472.516C777.573 473.004 776.89 473.297 776.011 473.395C772.983 474.566 769.175 474.615 764.585 473.541C759.995 472.564 754.185 470.709 747.153 467.975C743.638 466.607 740.757 465.436 738.511 464.459C736.362 463.385 734.458 462.359 732.798 461.383C731.235 460.309 729.771 459.186 728.403 458.014C727.134 456.842 725.571 455.426 723.716 453.766ZM744.663 403.521C743.589 405.084 742.368 406.5 741.001 407.77C739.731 409.039 738.462 410.357 737.192 411.725C736.021 412.994 734.946 414.459 733.97 416.119C732.993 417.682 732.31 419.537 731.919 421.686C735.337 421.295 738.901 420.367 742.612 418.902C746.323 417.34 749.839 415.875 753.159 414.508C752.769 411.48 751.694 409.039 749.937 407.184C748.276 405.328 746.519 404.107 744.663 403.521ZM870.522 386.529C870.62 387.213 870.62 387.75 870.522 388.141C870.522 388.434 870.474 388.727 870.376 389.02C870.376 389.312 870.376 389.654 870.376 390.045C870.376 390.338 870.474 390.826 870.669 391.51C868.618 394.83 866.226 397.125 863.491 398.395C860.854 399.566 857.974 400.445 854.849 401.031C851.724 401.52 848.501 402.057 845.181 402.643C841.958 403.229 838.735 404.498 835.513 406.451C834.243 405.963 833.071 405.963 831.997 406.451C831.021 406.939 829.556 407.086 827.603 406.891C827.017 407.477 826.284 407.916 825.405 408.209C824.526 408.404 823.647 408.648 822.769 408.941C823.159 409.82 823.306 410.748 823.208 411.725C823.208 412.604 823.354 413.336 823.647 413.922C827.065 414.215 830.825 414.166 834.927 413.775C839.126 413.385 843.228 413.141 847.231 413.043C847.329 413.531 847.28 413.873 847.085 414.068C846.89 414.166 846.841 414.41 846.938 414.801C847.622 415.289 848.306 415.924 848.989 416.705C849.673 417.389 850.356 418.072 851.04 418.756C851.724 419.439 852.407 420.025 853.091 420.514C853.872 420.904 854.751 421.051 855.728 420.953C856.118 421.734 856.362 422.613 856.46 423.59C856.655 424.469 856.558 425.396 856.167 426.373C854.604 427.447 853.042 428.57 851.479 429.742C849.917 430.816 848.257 431.793 846.499 432.672C844.839 433.551 843.032 434.283 841.079 434.869C839.224 435.357 837.124 435.553 834.78 435.455C834.292 435.455 833.901 435.455 833.608 435.455C833.413 435.455 833.12 435.309 832.729 435.016C831.948 435.504 830.825 435.65 829.36 435.455C827.993 435.26 826.919 435.406 826.138 435.895C825.063 435.406 823.745 435.211 822.183 435.309C820.718 435.309 819.399 435.113 818.228 434.723C816.665 436.773 815.249 438.971 813.979 441.314C812.71 443.658 811.587 446.148 810.61 448.785C813.931 449.273 816.665 449.469 818.813 449.371C821.06 449.273 823.159 449.127 825.112 448.932C827.065 448.639 829.067 448.395 831.118 448.199C833.169 447.906 835.757 447.809 838.882 447.906C840.835 446.832 843.13 446.148 845.767 445.855C848.501 445.465 850.991 444.879 853.237 444.098C854.019 444.391 854.702 444.928 855.288 445.709C855.874 446.393 856.411 447.076 856.899 447.76C857.485 448.346 858.071 448.883 858.657 449.371C859.243 449.859 859.976 450.055 860.854 449.957C861.245 450.348 861.489 450.836 861.587 451.422C861.782 451.91 861.929 452.398 862.026 452.887C862.124 453.375 862.271 453.814 862.466 454.205C862.759 454.498 863.198 454.596 863.784 454.498C862.319 457.721 860.61 460.211 858.657 461.969C856.802 463.629 854.653 464.898 852.212 465.777C849.771 466.656 847.036 467.34 844.009 467.828C841.079 468.316 837.808 468.902 834.194 469.586C833.315 469.781 832.583 469.732 831.997 469.439C831.411 469.244 830.728 469.146 829.946 469.146C827.7 469.635 825.015 470.074 821.89 470.465C818.765 470.855 815.591 471.002 812.368 470.904C809.146 470.807 806.069 470.367 803.14 469.586C800.21 468.902 797.817 467.633 795.962 465.777C795.181 465.094 794.644 464.312 794.351 463.434C794.155 462.457 793.521 461.725 792.446 461.236C792.349 459.967 792.153 458.551 791.86 456.988C791.567 455.426 791.274 453.814 790.981 452.154C790.688 450.396 790.444 448.688 790.249 447.027C790.151 445.367 790.249 443.854 790.542 442.486C790.835 441.021 791.421 439.703 792.3 438.531C793.276 437.359 793.618 436.09 793.325 434.723C793.813 434.625 794.106 434.381 794.204 433.99C794.302 433.502 794.692 433.307 795.376 433.404C795.962 431.646 796.597 429.986 797.28 428.424C797.964 426.861 798.647 425.348 799.331 423.883C800.112 422.418 800.845 420.953 801.528 419.488C802.31 417.926 803.042 416.217 803.726 414.361C802.358 413.092 801.333 411.725 800.649 410.26C800.063 408.697 799.624 407.184 799.331 405.719C799.038 404.156 798.794 402.594 798.599 401.031C798.403 399.371 798.062 397.711 797.573 396.051C798.55 394.586 799.722 393.414 801.089 392.535C802.554 391.559 804.116 390.777 805.776 390.191C807.437 389.605 809.243 389.117 811.196 388.727C813.149 388.336 815.2 387.896 817.349 387.408C821.255 386.139 824.722 385.162 827.749 384.479C830.874 383.795 833.901 383.258 836.831 382.867C839.858 382.379 842.983 381.939 846.206 381.549C849.429 381.158 853.091 380.572 857.192 379.791C858.071 380.67 858.901 381.109 859.683 381.109C860.073 380.23 860.513 379.986 861.001 380.377C861.587 380.67 861.831 380.377 861.733 379.498C862.71 381.158 863.931 382.574 865.396 383.746C866.958 384.82 868.667 385.748 870.522 386.529ZM951.997 456.695C951.411 458.355 950.532 460.064 949.36 461.822C948.286 463.482 946.968 464.996 945.405 466.363C943.94 467.633 942.28 468.707 940.425 469.586C938.569 470.465 936.616 470.953 934.565 471.051C933.296 470.758 932.417 470.416 931.929 470.025C931.538 469.732 931.099 469.439 930.61 469.146C930.317 468.951 930.024 468.805 929.731 468.707C929.536 468.512 929.341 468.365 929.146 468.268L927.388 467.535L927.974 465.631C928.169 464.85 928.12 464.264 927.827 463.873C927.534 463.385 926.948 462.75 926.069 461.969C925.776 461.676 925.483 461.383 925.19 461.09C924.897 460.797 924.653 460.504 924.458 460.211L921.968 457.428L925.923 456.402C928.364 455.719 929.976 454.84 930.757 453.766C931.636 452.691 931.978 450.885 931.782 448.346C929.829 447.955 928.169 447.906 926.802 448.199C925.532 448.492 924.214 448.834 922.847 449.225C921.089 449.713 919.282 450.152 917.427 450.543C915.669 450.836 913.716 450.982 911.567 450.982C910.786 450.982 910.054 450.982 909.37 450.982C908.687 450.885 907.954 450.787 907.173 450.689L905.708 450.396C905.513 449.322 905.317 448.736 905.122 448.639C904.927 448.443 904.731 448.248 904.536 448.053C904.048 447.564 903.511 446.93 902.925 446.148C902.437 445.27 902.339 444.195 902.632 442.926C902.144 442.047 901.851 441.168 901.753 440.289C901.167 441.461 900.728 442.682 900.435 443.951L899.849 445.416L898.384 445.709C898.188 445.807 898.042 446.051 897.944 446.441C897.847 446.734 897.798 446.979 897.798 447.174L897.065 449.664C896.87 449.859 896.675 450.055 896.479 450.25C896.284 450.348 896.089 450.494 895.894 450.689C895.698 451.568 895.454 452.447 895.161 453.326C894.868 454.205 894.575 455.035 894.282 455.816C893.794 457.086 893.354 458.355 892.964 459.625C892.671 460.797 892.573 461.969 892.671 463.141L892.085 464.752C891.597 465.338 891.06 465.826 890.474 466.217C889.888 466.51 889.302 466.803 888.716 467.096C888.521 467.291 888.228 467.486 887.837 467.682C887.544 467.779 887.3 467.877 887.104 467.975L886.665 469.586L884.907 469.879C883.833 470.074 883.052 470.221 882.563 470.318C882.173 470.416 881.685 470.465 881.099 470.465L879.634 470.318C878.56 469.439 877.729 468.756 877.144 468.268C876.558 467.682 875.874 467.145 875.093 466.656C874.214 465.484 873.726 464.605 873.628 464.02C873.53 463.434 873.433 462.896 873.335 462.408C873.14 461.822 873.042 461.334 873.042 460.943C872.944 460.553 872.798 460.26 872.603 460.064L870.698 458.307L872.31 456.988L872.456 454.498C874.409 449.518 876.46 444.732 878.608 440.143C880.854 435.553 883.149 430.865 885.493 426.08C886.274 424.518 887.007 422.955 887.69 421.393C888.472 419.83 889.253 418.268 890.034 416.705C889.937 416.412 889.888 416.07 889.888 415.68C889.888 415.289 889.985 414.85 890.181 414.361C891.255 412.701 892.134 411.236 892.817 409.967C893.501 408.6 894.185 407.232 894.868 405.865C895.649 404.205 896.431 402.594 897.212 401.031C898.091 399.469 899.165 397.857 900.435 396.197L902.778 395.172C903.071 395.074 903.413 394.977 903.804 394.879C904.194 394.684 904.634 394.586 905.122 394.586L907.319 394.879C910.054 393.609 912.446 391.852 914.497 389.605C916.548 387.262 918.647 384.479 920.796 381.256L922.261 379.205L924.165 380.377C924.653 380.67 925.337 380.963 926.216 381.256C927.095 381.451 928.022 381.695 928.999 381.988C930.757 382.379 932.417 382.818 933.979 383.307C935.542 383.795 936.812 384.527 937.788 385.504C938.374 387.066 938.716 388.238 938.813 389.02C938.911 389.801 939.058 390.582 939.253 391.363C939.546 393.023 939.79 394.684 939.985 396.344C940.278 398.004 940.474 399.859 940.571 401.91C941.06 403.57 941.45 405.23 941.743 406.891C942.134 408.453 942.476 410.064 942.769 411.725C943.257 414.068 943.745 416.363 944.233 418.609C944.722 420.758 945.356 422.809 946.138 424.762C946.919 424.762 947.407 424.811 947.603 424.908C948.091 424.713 948.579 424.566 949.067 424.469C949.653 424.371 950.288 424.273 950.972 424.176L952.583 424.029L953.169 425.494C953.267 425.982 953.755 426.471 954.634 426.959C955.903 427.057 956.831 427.35 957.417 427.838C958.003 428.229 958.54 428.668 959.028 429.156C959.419 429.547 959.81 429.84 960.2 430.035L962.397 430.914L961.226 433.111C960.249 434.869 958.833 436.578 956.978 438.238C955.22 439.801 953.218 441.119 950.972 442.193C951.069 442.779 951.118 443.365 951.118 443.951C951.216 444.439 951.362 444.977 951.558 445.562C951.851 447.223 952.095 448.932 952.29 450.689C952.485 452.447 952.485 454.254 952.29 456.109L951.997 456.695ZM909.663 431.354C912.593 431.158 915.229 430.963 917.573 430.768C920.015 430.475 922.7 430.035 925.63 429.449C924.946 426.52 924.214 423.492 923.433 420.367C922.651 417.145 921.821 413.971 920.942 410.846L920.063 412.311C918.11 414.361 916.206 416.656 914.351 419.195C912.593 421.734 911.079 424.127 909.81 426.373C909.224 427.252 908.638 428.131 908.052 429.01C907.466 429.889 906.929 430.768 906.44 431.646C907.026 431.549 907.563 431.5 908.052 431.5C908.638 431.5 909.175 431.451 909.663 431.354ZM1070.53 466.363C1069.56 466.852 1068.63 467.291 1067.75 467.682C1066.97 468.072 1066.04 468.268 1064.97 468.268C1061.16 465.436 1059.16 460.504 1058.96 453.473C1058.86 446.441 1060.38 437.506 1063.5 426.666C1063.99 426.373 1064.23 425.787 1064.23 424.908L1062.92 423.443C1062.52 423.443 1062.13 423.492 1061.74 423.59C1061.45 423.688 1061.21 424.029 1061.01 424.615C1058.47 426.471 1055.69 428.424 1052.66 430.475C1049.63 432.428 1046.46 434.283 1043.14 436.041C1039.92 437.701 1036.6 439.068 1033.18 440.143C1029.86 441.217 1026.59 441.754 1023.36 441.754C1015.16 441.754 1009.01 437.604 1004.91 429.303L1003.74 427.105L1002.56 429.01C1002.27 429.4 1001.83 430.23 1001.25 431.5C1000.66 432.672 1000.07 434.039 999.487 435.602C998.901 437.164 998.364 438.775 997.876 440.436C997.485 441.998 997.339 443.365 997.437 444.537C996.558 445.416 995.63 446.441 994.653 447.613C993.677 448.785 992.944 450.104 992.456 451.568C992.261 452.35 992.358 453.082 992.749 453.766C992.554 454.645 992.114 455.328 991.431 455.816C991.04 456.305 990.601 456.793 990.112 457.281C989.722 457.672 989.38 458.111 989.087 458.6C988.892 459.088 988.745 459.576 988.647 460.064C988.647 460.553 988.599 461.041 988.501 461.529C988.501 462.213 988.403 462.848 988.208 463.434C986.548 466.852 985.229 469.049 984.253 470.025C983.276 471.1 981.958 471.637 980.298 471.637C979.517 471.637 978.247 471.49 976.489 471.197C975.22 469.83 974.048 467.975 972.974 465.631C971.997 463.189 971.216 460.602 970.63 457.867C970.142 455.133 969.897 452.398 969.897 449.664C969.995 446.832 970.483 444.391 971.362 442.34C971.362 442.242 971.753 441.266 972.534 439.41C973.315 437.555 974.292 435.162 975.464 432.232C976.733 429.303 978.149 426.08 979.712 422.564C981.274 418.951 982.837 415.484 984.399 412.164C985.962 408.746 987.427 405.621 988.794 402.789C990.259 399.957 991.479 397.809 992.456 396.344C993.237 395.172 993.921 394.098 994.507 393.121C995.19 392.047 995.825 391.021 996.411 390.045C998.169 387.018 999.829 384.527 1001.39 382.574C1003.05 380.523 1005.44 378.912 1008.57 377.74C1010.72 378.619 1012.28 379.645 1013.26 380.816L1013.55 382.428C1013.94 383.404 1014.53 383.893 1015.31 383.893C1016.38 384.186 1017.26 384.479 1017.94 384.771C1018.73 384.967 1019.56 385.162 1020.43 385.357C1021.12 386.139 1021.75 387.066 1022.34 388.141C1023.12 389.312 1023.85 390.484 1024.54 391.656C1025.32 392.73 1025.9 393.854 1026.29 395.025C1026.78 396.1 1027.03 397.223 1027.03 398.395C1027.12 399.566 1026.93 400.787 1026.44 402.057L1026.59 403.521C1027.08 404.4 1027.17 405.621 1026.88 407.184C1026.78 407.867 1026.73 408.6 1026.73 409.381C1026.73 410.064 1026.83 410.846 1027.03 411.725C1028.78 413.092 1030.35 413.775 1031.71 413.775C1033.28 413.775 1034.69 413.434 1035.96 412.75C1037.33 411.969 1038.6 411.188 1039.77 410.406C1040.55 409.82 1041.33 409.332 1042.11 408.941C1042.9 408.453 1043.68 408.16 1044.46 408.062C1046.22 406.402 1047.78 404.938 1049.15 403.668C1050.61 402.398 1052.12 401.129 1053.69 399.859C1056.62 397.516 1059.45 394.977 1062.18 392.242C1064.92 389.508 1067.11 386.09 1068.77 381.988C1069.75 381.402 1070.78 381.109 1071.85 381.109C1072.92 381.109 1074.05 381.354 1075.22 381.842C1076.39 382.33 1077.51 382.818 1078.59 383.307C1078.88 383.502 1079.13 383.648 1079.32 383.746C1079.61 383.844 1079.86 383.941 1080.05 384.039C1080.05 385.016 1080.44 385.846 1081.23 386.529C1081.62 386.822 1081.86 387.018 1081.96 387.115C1082.06 387.213 1082.2 387.311 1082.4 387.408C1083.86 388.189 1084.79 388.971 1085.18 389.752C1085.86 391.998 1087.08 393.707 1088.84 394.879C1088.65 395.855 1088.65 396.783 1088.84 397.662C1089.14 398.443 1089.48 399.273 1089.87 400.152C1089.97 400.445 1090.06 400.738 1090.16 401.031C1090.26 401.324 1090.41 401.666 1090.6 402.057L1087.82 401.764L1088.26 404.547C1088.45 405.914 1088.31 407.428 1087.82 409.088C1087.43 410.748 1086.94 412.066 1086.35 413.043C1086.45 415.582 1086.5 417.584 1086.5 419.049C1086.6 420.416 1086.55 421.734 1086.35 423.004C1086.16 424.176 1085.86 425.299 1085.47 426.373C1085.18 427.447 1084.74 428.619 1084.16 429.889C1084.55 436.139 1083.81 441.852 1081.96 447.027C1080.2 452.105 1078.34 456.891 1076.39 461.383C1076.2 461.871 1075.95 462.359 1075.66 462.848C1075.46 463.336 1075.27 463.824 1075.07 464.312C1074.19 464.605 1073.41 464.947 1072.73 465.338C1072.05 465.631 1071.31 465.973 1070.53 466.363ZM1185.43 453.766C1184.36 457.672 1183.38 460.65 1182.5 462.701C1181.72 464.654 1180.5 466.705 1178.84 468.854C1177.57 468.658 1176.69 468.805 1176.21 469.293C1175.72 469.781 1175.18 470.221 1174.59 470.611C1173.72 470.807 1173.08 470.807 1172.69 470.611C1172.3 470.416 1171.96 470.172 1171.67 469.879C1171.37 469.684 1170.98 469.439 1170.49 469.146C1170.1 468.951 1169.47 468.854 1168.59 468.854C1168.39 468.072 1168.15 467.34 1167.86 466.656C1167.66 465.973 1167.03 465.729 1165.95 465.924C1166.15 465.143 1166.2 464.508 1166.1 464.02C1166 463.434 1165.85 462.945 1165.66 462.555C1165.56 462.066 1165.46 461.627 1165.37 461.236C1165.27 460.748 1165.32 460.162 1165.51 459.479C1165.02 459.479 1164.63 459.137 1164.34 458.453C1164.05 457.77 1163.71 457.086 1163.32 456.402C1163.61 454.645 1163.9 452.984 1164.19 451.422C1164.49 449.859 1164.83 448.395 1165.22 447.027C1165.71 445.66 1166.1 444.293 1166.39 442.926C1166.68 441.559 1166.54 440.143 1165.95 438.678C1166.34 438.971 1166.64 438.922 1166.83 438.531C1167.03 438.043 1167.17 437.457 1167.27 436.773C1167.37 435.992 1167.42 435.26 1167.42 434.576C1167.42 433.795 1167.37 433.16 1167.27 432.672C1168.25 430.133 1169.03 427.545 1169.61 424.908C1170.3 422.174 1170.88 419.488 1171.37 416.852C1171.96 414.215 1172.54 411.627 1173.13 409.088C1173.72 406.549 1174.5 404.205 1175.47 402.057C1176.55 401.861 1177.72 402.008 1178.99 402.496C1180.36 402.887 1181.19 403.424 1181.48 404.107C1184.02 402.154 1186.26 399.811 1188.22 397.076C1190.17 394.244 1192.17 391.51 1194.22 388.873C1196.27 386.236 1198.52 383.893 1200.96 381.842C1203.5 379.791 1206.67 378.57 1210.48 378.18C1212.44 379.645 1214.58 381.158 1216.93 382.721C1219.37 384.186 1221.37 386.139 1222.93 388.58C1223.72 388.971 1224.35 389.41 1224.84 389.898C1225.42 390.289 1226.11 390.729 1226.89 391.217V392.975C1228.06 394.049 1228.99 395.318 1229.67 396.783C1230.45 398.15 1231.14 399.664 1231.72 401.324C1232.31 402.887 1232.9 404.498 1233.48 406.158C1234.07 407.721 1234.75 409.234 1235.53 410.699C1235.34 411.188 1235.24 411.627 1235.24 412.018C1235.24 412.311 1235.29 412.652 1235.39 413.043C1235.58 413.434 1235.73 413.824 1235.83 414.215C1235.92 414.605 1235.92 415.143 1235.83 415.826C1235.53 420.123 1234.12 423.59 1231.58 426.227C1229.14 428.863 1226.16 431.061 1222.64 432.818C1219.13 434.479 1215.37 435.895 1211.36 437.066C1207.36 438.238 1203.75 439.508 1200.52 440.875C1200.52 441.266 1200.67 441.461 1200.96 441.461C1201.35 441.461 1201.5 441.705 1201.4 442.193C1203.75 443.658 1205.6 444.83 1206.97 445.709C1208.33 446.588 1209.6 447.32 1210.78 447.906C1212.05 448.492 1213.36 449.029 1214.73 449.518C1216.2 449.908 1218.2 450.396 1220.74 450.982C1223.28 451.568 1225.23 452.057 1226.6 452.447C1228.06 452.74 1229.38 453.033 1230.55 453.326C1231.72 453.521 1232.9 453.717 1234.07 453.912C1235.34 454.01 1237.09 454.156 1239.34 454.352C1240.22 455.23 1240.95 456.305 1241.54 457.574C1242.22 458.746 1242.66 459.967 1242.86 461.236C1243.05 462.408 1243.1 463.58 1243 464.752C1242.91 465.826 1242.56 466.705 1241.98 467.389C1242.08 467.682 1242.27 467.828 1242.56 467.828C1242.95 467.73 1243.34 467.73 1243.74 467.828C1243.15 468.219 1242.66 468.707 1242.27 469.293C1241.88 469.879 1241.49 470.465 1241.1 471.051C1240.71 471.637 1240.27 472.125 1239.78 472.516C1239.29 473.004 1238.61 473.297 1237.73 473.395C1234.7 474.566 1230.89 474.615 1226.3 473.541C1221.71 472.564 1215.9 470.709 1208.87 467.975C1205.36 466.607 1202.48 465.436 1200.23 464.459C1198.08 463.385 1196.18 462.359 1194.52 461.383C1192.95 460.309 1191.49 459.186 1190.12 458.014C1188.85 456.842 1187.29 455.426 1185.43 453.766ZM1206.38 403.521C1205.31 405.084 1204.09 406.5 1202.72 407.77C1201.45 409.039 1200.18 410.357 1198.91 411.725C1197.74 412.994 1196.67 414.459 1195.69 416.119C1194.71 417.682 1194.03 419.537 1193.64 421.686C1197.06 421.295 1200.62 420.367 1204.33 418.902C1208.04 417.34 1211.56 415.875 1214.88 414.508C1214.49 411.48 1213.41 409.039 1211.66 407.184C1210 405.328 1208.24 404.107 1206.38 403.521ZM1335.9 425.055C1335.81 426.227 1335.9 427.35 1336.2 428.424C1336.49 429.498 1336.83 430.572 1337.22 431.646C1337.71 432.623 1338.15 433.648 1338.54 434.723C1338.93 435.797 1339.22 436.871 1339.42 437.945C1339.61 439.312 1339.61 440.826 1339.42 442.486C1339.22 444.049 1338.88 445.611 1338.39 447.174C1337.91 448.639 1337.27 450.006 1336.49 451.275C1335.71 452.447 1334.78 453.326 1333.71 453.912C1332.34 455.67 1330.68 457.037 1328.73 458.014C1326.77 458.99 1324.97 460.162 1323.31 461.529C1322.23 462.213 1321.01 462.701 1319.64 462.994C1318.37 463.287 1317.06 463.58 1315.69 463.873C1314.61 464.459 1313.34 465.094 1311.88 465.777C1310.42 466.363 1308.9 466.949 1307.34 467.535C1305.78 468.023 1304.21 468.414 1302.65 468.707C1301.09 468.902 1299.72 468.951 1298.55 468.854C1295.62 469.928 1292.74 470.611 1289.91 470.904C1287.17 471.295 1283.95 471.1 1280.24 470.318C1276.72 470.807 1273.45 470.66 1270.42 469.879C1267.5 469.098 1264.86 467.877 1262.51 466.217C1260.27 464.459 1258.27 462.408 1256.51 460.064C1254.85 457.623 1253.48 455.084 1252.41 452.447C1251.63 446.881 1251.82 441.852 1252.99 437.359C1254.17 432.77 1255.83 428.57 1257.97 424.762C1260.22 420.855 1262.76 417.291 1265.59 414.068C1268.42 410.748 1271.16 407.525 1273.79 404.4C1274.38 404.596 1274.82 404.596 1275.11 404.4C1275.5 404.107 1275.84 403.766 1276.14 403.375C1276.43 402.887 1276.72 402.447 1277.02 402.057C1277.41 401.666 1277.85 401.422 1278.33 401.324C1279.02 399.859 1280 398.785 1281.26 398.102C1282.63 397.32 1283.71 396.246 1284.49 394.879C1285.37 394.684 1286.1 394.391 1286.68 394C1287.27 393.609 1287.81 393.17 1288.3 392.682C1288.88 392.193 1289.47 391.754 1290.05 391.363C1290.64 390.875 1291.32 390.533 1292.1 390.338V388.727C1293.86 387.945 1295.13 387.066 1295.91 386.09C1296.79 385.016 1297.82 383.746 1298.99 382.281C1299.87 382.184 1300.55 382.135 1301.04 382.135C1301.63 382.135 1302.46 382.037 1303.53 381.842C1304.31 380.475 1305 379.449 1305.58 378.766C1306.26 378.082 1307.24 377.35 1308.51 376.568C1309.68 377.154 1310.95 377.545 1312.32 377.74C1313.78 377.936 1315.05 378.57 1316.13 379.645C1316.23 380.621 1316.52 381.402 1317.01 381.988C1317.5 382.477 1318.03 382.965 1318.62 383.453C1319.2 383.844 1319.74 384.283 1320.23 384.771C1320.82 385.26 1321.21 385.943 1321.4 386.822C1321.79 386.92 1322.04 386.871 1322.13 386.676C1322.33 386.48 1322.62 386.432 1323.01 386.529C1323.31 387.896 1323.65 388.824 1324.04 389.312C1324.43 389.703 1324.82 390.533 1325.21 391.803C1324.72 392.779 1324.33 393.805 1324.04 394.879C1323.84 395.855 1323.26 396.588 1322.28 397.076C1322.18 397.76 1322.38 398.15 1322.87 398.248C1323.35 398.248 1323.65 398.492 1323.75 398.98C1323.84 399.859 1323.7 400.494 1323.31 400.885C1325.65 404.693 1327.75 408.746 1329.6 413.043C1331.46 417.242 1333.56 421.246 1335.9 425.055ZM1317.59 438.971C1317.98 437.896 1318.47 437.018 1319.06 436.334C1319.74 435.65 1320.13 434.625 1320.23 433.258C1319.74 432.477 1319.45 431.891 1319.35 431.5C1319.25 431.012 1319.2 430.279 1319.2 429.303C1317.06 426.275 1315.2 423.053 1313.64 419.635C1312.08 416.119 1310.32 412.848 1308.36 409.82C1308.17 410.211 1307.83 410.602 1307.34 410.992C1306.85 411.383 1306.31 411.285 1305.73 410.699C1305.53 411.48 1305.19 412.066 1304.7 412.457C1304.21 412.75 1303.68 412.896 1303.09 412.896C1302.5 412.799 1301.87 412.652 1301.19 412.457C1300.6 412.164 1300.06 411.822 1299.58 411.432C1296.74 413.678 1293.91 415.875 1291.08 418.023C1288.25 420.172 1285.71 422.662 1283.46 425.494C1283.07 425.689 1282.83 425.787 1282.73 425.787C1282.63 425.689 1282.34 425.738 1281.85 425.934C1281.07 427.789 1280.09 429.498 1278.92 431.061C1277.85 432.525 1276.77 434.039 1275.7 435.602C1274.62 437.164 1273.7 438.824 1272.92 440.582C1272.13 442.34 1271.69 444.391 1271.6 446.734C1273.26 448.102 1275.21 448.932 1277.46 449.225C1279.7 449.518 1282 449.566 1284.34 449.371C1286.78 449.176 1289.13 448.883 1291.37 448.492C1293.72 448.004 1295.86 447.76 1297.82 447.76C1301.92 446.783 1305.43 445.514 1308.36 443.951C1311.29 442.291 1314.37 440.631 1317.59 438.971ZM1429.83 456.695C1429.24 458.355 1428.36 460.064 1427.19 461.822C1426.12 463.482 1424.8 464.996 1423.24 466.363C1421.77 467.633 1420.11 468.707 1418.26 469.586C1416.4 470.465 1414.45 470.953 1412.4 471.051C1411.13 470.758 1410.25 470.416 1409.76 470.025C1409.37 469.732 1408.93 469.439 1408.44 469.146C1408.15 468.951 1407.86 468.805 1407.56 468.707C1407.37 468.512 1407.17 468.365 1406.98 468.268L1405.22 467.535L1405.81 465.631C1406 464.85 1405.95 464.264 1405.66 463.873C1405.37 463.385 1404.78 462.75 1403.9 461.969C1403.61 461.676 1403.32 461.383 1403.02 461.09C1402.73 460.797 1402.49 460.504 1402.29 460.211L1399.8 457.428L1403.75 456.402C1406.2 455.719 1407.81 454.84 1408.59 453.766C1409.47 452.691 1409.81 450.885 1409.61 448.346C1407.66 447.955 1406 447.906 1404.63 448.199C1403.36 448.492 1402.05 448.834 1400.68 449.225C1398.92 449.713 1397.11 450.152 1395.26 450.543C1393.5 450.836 1391.55 450.982 1389.4 450.982C1388.62 450.982 1387.89 450.982 1387.2 450.982C1386.52 450.885 1385.79 450.787 1385 450.689L1383.54 450.396C1383.34 449.322 1383.15 448.736 1382.95 448.639C1382.76 448.443 1382.56 448.248 1382.37 448.053C1381.88 447.564 1381.34 446.93 1380.76 446.148C1380.27 445.27 1380.17 444.195 1380.46 442.926C1379.98 442.047 1379.68 441.168 1379.58 440.289C1379 441.461 1378.56 442.682 1378.27 443.951L1377.68 445.416L1376.22 445.709C1376.02 445.807 1375.87 446.051 1375.78 446.441C1375.68 446.734 1375.63 446.979 1375.63 447.174L1374.9 449.664C1374.7 449.859 1374.51 450.055 1374.31 450.25C1374.12 450.348 1373.92 450.494 1373.73 450.689C1373.53 451.568 1373.29 452.447 1372.99 453.326C1372.7 454.205 1372.41 455.035 1372.11 455.816C1371.63 457.086 1371.19 458.355 1370.8 459.625C1370.5 460.797 1370.41 461.969 1370.5 463.141L1369.92 464.752C1369.43 465.338 1368.89 465.826 1368.31 466.217C1367.72 466.51 1367.13 466.803 1366.55 467.096C1366.35 467.291 1366.06 467.486 1365.67 467.682C1365.38 467.779 1365.13 467.877 1364.94 467.975L1364.5 469.586L1362.74 469.879C1361.67 470.074 1360.88 470.221 1360.4 470.318C1360 470.416 1359.52 470.465 1358.93 470.465L1357.47 470.318C1356.39 469.439 1355.56 468.756 1354.98 468.268C1354.39 467.682 1353.71 467.145 1352.92 466.656C1352.05 465.484 1351.56 464.605 1351.46 464.02C1351.36 463.434 1351.26 462.896 1351.17 462.408C1350.97 461.822 1350.87 461.334 1350.87 460.943C1350.78 460.553 1350.63 460.26 1350.43 460.064L1348.53 458.307L1350.14 456.988L1350.29 454.498C1352.24 449.518 1354.29 444.732 1356.44 440.143C1358.69 435.553 1360.98 430.865 1363.33 426.08C1364.11 424.518 1364.84 422.955 1365.52 421.393C1366.3 419.83 1367.08 418.268 1367.87 416.705C1367.77 416.412 1367.72 416.07 1367.72 415.68C1367.72 415.289 1367.82 414.85 1368.01 414.361C1369.09 412.701 1369.97 411.236 1370.65 409.967C1371.33 408.6 1372.02 407.232 1372.7 405.865C1373.48 404.205 1374.26 402.594 1375.04 401.031C1375.92 399.469 1377 397.857 1378.27 396.197L1380.61 395.172C1380.9 395.074 1381.25 394.977 1381.64 394.879C1382.03 394.684 1382.47 394.586 1382.95 394.586L1385.15 394.879C1387.89 393.609 1390.28 391.852 1392.33 389.605C1394.38 387.262 1396.48 384.479 1398.63 381.256L1400.09 379.205L1402 380.377C1402.49 380.67 1403.17 380.963 1404.05 381.256C1404.93 381.451 1405.85 381.695 1406.83 381.988C1408.59 382.379 1410.25 382.818 1411.81 383.307C1413.37 383.795 1414.64 384.527 1415.62 385.504C1416.21 387.066 1416.55 388.238 1416.65 389.02C1416.74 389.801 1416.89 390.582 1417.08 391.363C1417.38 393.023 1417.62 394.684 1417.82 396.344C1418.11 398.004 1418.31 399.859 1418.4 401.91C1418.89 403.57 1419.28 405.23 1419.58 406.891C1419.97 408.453 1420.31 410.064 1420.6 411.725C1421.09 414.068 1421.58 416.363 1422.07 418.609C1422.55 420.758 1423.19 422.809 1423.97 424.762C1424.75 424.762 1425.24 424.811 1425.43 424.908C1425.92 424.713 1426.41 424.566 1426.9 424.469C1427.49 424.371 1428.12 424.273 1428.8 424.176L1430.42 424.029L1431 425.494C1431.1 425.982 1431.59 426.471 1432.47 426.959C1433.74 427.057 1434.66 427.35 1435.25 427.838C1435.83 428.229 1436.37 428.668 1436.86 429.156C1437.25 429.547 1437.64 429.84 1438.03 430.035L1440.23 430.914L1439.06 433.111C1438.08 434.869 1436.67 436.578 1434.81 438.238C1433.05 439.801 1431.05 441.119 1428.8 442.193C1428.9 442.779 1428.95 443.365 1428.95 443.951C1429.05 444.439 1429.19 444.977 1429.39 445.562C1429.68 447.223 1429.93 448.932 1430.12 450.689C1430.32 452.447 1430.32 454.254 1430.12 456.109L1429.83 456.695ZM1387.5 431.354C1390.42 431.158 1393.06 430.963 1395.41 430.768C1397.85 430.475 1400.53 430.035 1403.46 429.449C1402.78 426.52 1402.05 423.492 1401.26 420.367C1400.48 417.145 1399.65 413.971 1398.77 410.846L1397.9 412.311C1395.94 414.361 1394.04 416.656 1392.18 419.195C1390.42 421.734 1388.91 424.127 1387.64 426.373C1387.06 427.252 1386.47 428.131 1385.88 429.01C1385.3 429.889 1384.76 430.768 1384.27 431.646C1384.86 431.549 1385.4 431.5 1385.88 431.5C1386.47 431.5 1387.01 431.451 1387.5 431.354ZM1519.21 429.449C1519.12 429.938 1519.02 430.377 1518.92 430.768C1518.82 431.061 1518.73 431.354 1518.63 431.646C1518.53 431.939 1518.48 432.33 1518.48 432.818C1518.48 433.209 1518.48 433.746 1518.48 434.43C1515.55 439.605 1511.84 443.951 1507.35 447.467C1502.95 450.982 1498.07 454.107 1492.7 456.842C1487.43 459.479 1481.91 461.92 1476.15 464.166C1470.39 466.314 1464.77 468.658 1459.3 471.197C1456.96 470.611 1455.15 469.635 1453.88 468.268C1452.71 466.9 1451.78 465.338 1451.1 463.58C1450.51 461.725 1450.07 459.723 1449.78 457.574C1449.58 455.328 1449.39 453.033 1449.19 450.689C1449.49 449.615 1449.88 448.736 1450.37 448.053C1450.95 447.271 1451.25 446.197 1451.25 444.83C1452.03 442.291 1452.81 439.801 1453.59 437.359C1454.37 434.918 1454.86 432.428 1455.05 429.889C1455.35 429.107 1455.88 428.57 1456.67 428.277C1457.15 423.59 1457.15 418.854 1456.67 414.068C1456.27 409.186 1455.49 404.645 1454.32 400.445C1454.42 399.469 1454.52 398.785 1454.61 398.395C1454.81 397.906 1454.81 397.564 1454.61 397.369C1454.52 396.588 1454.76 396.197 1455.35 396.197C1456.03 396.197 1456.71 396.197 1457.4 396.197C1457.4 394.732 1457.1 393.268 1456.52 391.803C1456.03 390.338 1455.54 388.678 1455.05 386.822C1455.74 385.357 1456.18 383.941 1456.37 382.574C1456.57 381.109 1457.01 379.84 1457.69 378.766C1462.96 380.426 1467.99 382.428 1472.78 384.771C1477.66 387.115 1482.45 388.824 1487.13 389.898C1490.65 392.438 1494.26 394.977 1497.97 397.516C1501.68 399.957 1505.05 402.691 1508.08 405.719C1511.11 408.648 1513.65 412.018 1515.7 415.826C1517.75 419.635 1518.92 424.176 1519.21 429.449ZM1484.5 437.506C1486.55 436.725 1488.55 435.895 1490.5 435.016C1492.55 434.137 1494.41 433.16 1496.07 432.086C1497.83 430.914 1499.39 429.596 1500.76 428.131C1502.12 426.666 1503.25 424.908 1504.13 422.857C1503.54 421.686 1502.76 420.66 1501.78 419.781C1500.81 418.805 1499.83 417.926 1498.85 417.145C1497.88 416.266 1496.9 415.387 1495.92 414.508C1495.04 413.629 1494.31 412.555 1493.73 411.285C1492.46 411.09 1491.33 410.748 1490.36 410.26C1489.38 409.674 1488.4 409.137 1487.43 408.648C1486.55 408.062 1485.57 407.525 1484.5 407.037C1483.52 406.549 1482.35 406.256 1480.98 406.158C1478.83 405.084 1476.88 404.303 1475.12 403.814C1473.46 403.326 1472.19 402.691 1471.31 401.91C1470.63 401.91 1470.09 402.057 1469.7 402.35C1470.68 406.061 1471.41 409.576 1471.9 412.896C1472.39 416.119 1472.63 419.391 1472.63 422.711C1472.73 425.934 1472.58 429.254 1472.19 432.672C1471.8 436.09 1471.26 439.801 1470.58 443.805C1471.56 443.707 1472.44 443.512 1473.22 443.219C1474.1 442.828 1474.93 442.438 1475.71 442.047C1476.59 441.656 1477.47 441.314 1478.34 441.021C1479.32 440.631 1480.44 440.387 1481.71 440.289C1482.01 439.703 1482.4 439.215 1482.89 438.824C1483.47 438.434 1484.01 437.994 1484.5 437.506ZM1529.94 403.082C1530.62 401.031 1531.69 399.273 1533.16 397.809C1534.72 396.344 1536.38 395.123 1538.14 394.146C1540 393.072 1541.9 392.193 1543.85 391.51C1545.81 390.826 1547.66 390.24 1549.42 389.752C1553.33 388.092 1557.48 386.529 1561.87 385.064C1566.36 383.502 1570.9 382.135 1575.49 380.963C1580.18 379.791 1584.97 379.059 1589.85 378.766C1594.73 378.375 1599.86 378.961 1605.23 380.523C1605.52 381.5 1605.96 382.428 1606.55 383.307C1607.13 384.186 1607.72 385.064 1608.31 385.943C1608.99 386.822 1609.58 387.701 1610.06 388.58C1610.55 389.361 1610.84 390.191 1610.94 391.07C1611.92 391.949 1612.7 392.926 1613.29 394C1613.87 394.977 1613.97 396.295 1613.58 397.955C1612.6 398.736 1611.63 399.469 1610.65 400.152C1609.77 400.738 1608.79 401.275 1607.72 401.764C1604.11 400.885 1600.44 400.592 1596.73 400.885C1593.02 401.178 1589.7 401.422 1586.77 401.617C1585.89 400.738 1584.82 400.299 1583.55 400.299C1582.38 400.299 1581.11 400.494 1579.74 400.885C1578.47 401.275 1577.15 401.666 1575.79 402.057C1574.52 402.447 1573.3 402.545 1572.12 402.35C1571.15 403.131 1569.93 403.668 1568.46 403.961C1567.09 404.156 1565.58 404.352 1563.92 404.547C1563.82 405.035 1563.92 405.377 1564.21 405.572C1564.51 405.67 1564.56 405.963 1564.36 406.451C1564.95 407.135 1565.68 407.623 1566.56 407.916C1567.53 408.209 1568.51 408.502 1569.49 408.795C1570.56 409.088 1571.49 409.479 1572.27 409.967C1573.05 410.357 1573.59 411.041 1573.88 412.018C1575.35 412.018 1576.62 412.359 1577.69 413.043C1578.76 413.727 1579.64 414.557 1580.33 415.533C1581.01 416.51 1581.5 417.584 1581.79 418.756C1582.18 419.83 1582.38 420.807 1582.38 421.686C1582.67 422.467 1583.01 422.809 1583.4 422.711C1583.79 422.613 1584.23 422.809 1584.72 423.297C1585.01 424.566 1585.75 425.885 1586.92 427.252C1588.09 428.521 1589.02 429.938 1589.7 431.5C1589.9 433.941 1590.04 436.139 1590.14 438.092C1590.24 439.947 1589.9 441.852 1589.12 443.805C1587.65 447.418 1585.6 450.641 1582.96 453.473C1580.42 456.305 1577.5 458.844 1574.17 461.09C1570.95 463.238 1567.49 465.094 1563.77 466.656C1560.06 468.219 1556.45 469.537 1552.93 470.611C1552.54 470.514 1552.15 470.514 1551.76 470.611C1551.37 470.709 1551.27 470.465 1551.47 469.879C1550.69 470.562 1549.81 471.002 1548.83 471.197C1547.95 471.393 1546.98 471.441 1545.9 471.344C1544.83 471.344 1543.71 471.295 1542.53 471.197C1541.46 471.1 1540.43 471.148 1539.46 471.344C1538.77 470.66 1538.14 469.977 1537.55 469.293C1537.07 468.707 1536.67 467.926 1536.38 466.949C1535.89 466.949 1535.65 466.705 1535.65 466.217C1535.75 465.729 1535.6 465.484 1535.21 465.484C1535.8 464.508 1536.04 463.971 1535.94 463.873C1535.94 463.678 1535.8 463.531 1535.5 463.434C1535.31 463.336 1535.11 463.238 1534.92 463.141C1534.72 462.945 1534.67 462.701 1534.77 462.408C1535.16 461.627 1535.31 460.748 1535.21 459.771C1535.11 458.697 1535.01 457.623 1534.92 456.549C1534.82 455.475 1534.87 454.449 1535.06 453.473C1535.36 452.496 1536.09 451.715 1537.26 451.129C1540.58 451.52 1543.71 451.422 1546.64 450.836C1549.66 450.152 1552.5 449.225 1555.13 448.053C1557.77 446.881 1560.26 445.611 1562.6 444.244C1565.04 442.877 1567.44 441.656 1569.78 440.582C1570.07 439.703 1570.46 438.971 1570.95 438.385C1571.54 437.799 1572.12 437.262 1572.71 436.773C1573.3 436.285 1573.83 435.748 1574.32 435.162C1574.81 434.576 1575.15 433.844 1575.35 432.965C1575.44 432.281 1575.25 431.891 1574.76 431.793C1574.37 431.598 1574.17 431.207 1574.17 430.621L1572.56 430.182C1570.71 429.107 1568.61 428.229 1566.26 427.545C1563.92 426.764 1561.92 425.934 1560.26 425.055C1559.18 425.641 1558.16 425.787 1557.18 425.494C1556.3 425.201 1555.13 424.908 1553.67 424.615C1550.35 424.42 1547.12 424.078 1544 423.59C1540.97 423.102 1538.04 422.223 1535.21 420.953C1535.01 420.465 1534.77 420.025 1534.48 419.635C1534.18 419.244 1533.65 419.146 1532.87 419.342C1532.28 418.561 1531.69 417.828 1531.11 417.145C1530.52 416.363 1529.99 415.533 1529.5 414.654C1529.69 413.482 1529.84 412.506 1529.94 411.725C1530.03 410.846 1529.74 410.016 1529.06 409.234C1529.45 407.965 1529.74 406.939 1529.94 406.158C1530.13 405.377 1530.13 404.352 1529.94 403.082ZM1626.06 451.568C1626.25 452.35 1626.4 453.082 1626.5 453.766C1626.6 454.449 1626.74 455.182 1626.94 455.963C1626.55 456.939 1626.21 457.916 1625.91 458.893C1625.62 459.771 1625.33 460.65 1625.03 461.529C1624.74 462.213 1624.55 462.652 1624.45 462.848C1624.35 463.043 1624.3 463.189 1624.3 463.287C1624.3 463.385 1624.3 463.531 1624.3 463.727C1624.4 463.824 1624.45 464.215 1624.45 464.898L1623.86 466.656C1623.37 467.34 1622.79 467.877 1622.1 468.268C1621.42 468.658 1620.74 469 1620.05 469.293C1619.86 469.488 1619.57 469.635 1619.17 469.732C1618.78 469.928 1618.49 470.123 1618.3 470.318L1617.86 472.076L1615.95 472.369C1614.29 472.76 1612.88 472.955 1611.7 472.955H1609.95C1608.77 471.881 1607.85 471.051 1607.16 470.465C1606.48 469.879 1605.75 469.342 1604.97 468.854C1603.99 467.486 1603.45 466.51 1603.35 465.924C1603.26 465.24 1603.11 464.605 1602.92 464.02C1602.72 462.75 1602.48 461.92 1602.18 461.529L1600.13 459.479L1601.89 458.16L1600.28 455.377C1601.45 454.498 1602.33 453.863 1602.92 453.473C1603.5 453.082 1603.99 452.691 1604.38 452.301C1604.77 451.812 1605.21 451.227 1605.7 450.543C1606.19 449.859 1606.97 448.736 1608.04 447.174L1609.36 445.27L1611.26 446.295C1611.66 446.588 1612.49 446.881 1613.75 447.174C1615.12 447.369 1616.29 447.564 1617.27 447.76C1618.93 448.248 1620.49 448.639 1621.96 448.932C1623.42 449.127 1624.59 449.615 1625.47 450.396L1626.06 451.568Z" fill="black"/>
</svg>
